<?xml version="1.0" encoding="UTF-8"?>
<svg id="Layer_1" xmlns="http://www.w3.org/2000/svg" xmlns:xlink="http://www.w3.org/1999/xlink" version="1.1" viewBox="0 0 3.12 6.97">
  <!-- Generator: Adobe Illustrator 29.3.1, SVG Export Plug-In . SVG Version: 2.1.0 Build 151)  -->
  <defs>
    <style>
      .st0, .st1, .st2, .st3, .st4, .st5, .st6, .st7 {
        fill: none;
      }

      .st1 {
        stroke: #b9479a;
        stroke-dasharray: 20 8 2 8;
        stroke-width: 4px;
      }

      .st1, .st3, .st4, .st5, .st6, .st7 {
        stroke-linejoin: round;
      }

      .st1, .st3, .st5, .st7 {
        stroke-linecap: round;
      }

      .st2 {
        stroke-linejoin: bevel;
      }

      .st2, .st3 {
        stroke: #fed700;
        stroke-width: 2.5px;
      }

      .st4 {
        stroke: #dfdfdf;
      }

      .st4, .st6 {
        stroke-width: .5px;
      }

      .st8 {
        display: none;
      }

      .st8, .st9 {
        fill: #fff;
      }

      .st5 {
        stroke: #3953a4;
        stroke-dasharray: 1 8;
      }

      .st5, .st7 {
        stroke-width: 6px;
      }

      .st10, .st11 {
        fill: #4d4d4f;
        font-size: 16px;
      }

      .st10, .st11, .st12, .st13 {
        font-family: Helvetica, Helvetica;
      }

      .st11 {
        letter-spacing: 3.26em;
      }

      .st6 {
        stroke: #262626;
        stroke-linecap: square;
      }

      .st12 {
        font-size: 12px;
      }

      .st12, .st13 {
        fill: #231f20;
      }

      .st13 {
        font-size: 24.26px;
      }

      .st14 {
        clip-path: url(#clippath);
      }

      .st7 {
        stroke: #ed2024;
        stroke-dasharray: 8 16;
      }
    </style>
    <clipPath id="clippath">
      <rect class="st0" x="-529.02" y="-114.26" width="383" height="297"/>
    </clipPath>
  </defs>
  <g class="st14">
    <rect class="st9" x="-531.02" y="-130.26" width="420" height="315"/>
    <rect class="st9" x="-531.02" y="-130.26" width="420" height="315"/>
  </g>
  <rect class="st8" x="-382.53" y="152.79" width="312" height="235"/>
  <path class="st4" d="M-463.02,128.24V-106.76M-401.91,128.24V-106.76M-340.79,128.24V-106.76M-279.68,128.24V-106.76M-218.57,128.24V-106.76M-157.45,128.24V-106.76M-151.02,128.24h-312M-151.02,94.67h-312M-151.02,61.1h-312M-151.02,27.53h-312M-151.02-6.04h-312M-151.02-39.61h-312M-151.02-73.19h-312M-151.02-106.76h-312"/>
  <path class="st6" d="M-463.02,128.24H-151.02M-463.02,128.24v-3.12M-401.91,128.24v-3.12M-340.79,128.24v-3.12M-279.68,128.24v-3.12M-218.57,128.24v-3.12M-157.45,128.24v-3.12"/>
  <g id="xAxis">
    <text class="st11" transform="translate(-467.52 149.44)"><tspan x="0" y="0">012345</tspan></text>
  </g>
  <g>
    <path d="M-333.45,173.27c0-.25.03-.49.08-.72l1.88-7.47h-2.72c-.18,0-.26-.11-.26-.34.06-.37.18-.56.34-.56h2.88l1.05-4.25c.06-.23.2-.42.4-.59.2-.16.43-.24.68-.24.23,0,.42.07.56.2.15.14.22.31.22.53,0,.05,0,.09,0,.12s-.01.05-.02.09l-1.03,4.14h2.67c.18,0,.27.11.27.33-.01.05-.03.13-.05.23-.02.1-.05.18-.1.25-.05.07-.11.1-.19.1h-2.83l-1.86,7.52c-.13.49-.19.91-.19,1.27,0,.75.25,1.12.75,1.12.76,0,1.44-.36,2.02-1.08.59-.72,1.04-1.51,1.35-2.36.07-.09.14-.14.2-.14h.33c.06,0,.12.02.16.07.04.05.06.1.06.15,0,.04,0,.07-.02.08-.39,1.05-.94,1.98-1.67,2.77-.73.8-1.56,1.2-2.5,1.2-.69,0-1.27-.22-1.74-.67-.47-.45-.7-1.03-.7-1.73h0Z"/>
    <path d="M-324.22,181.37c0-.05.01-.09.03-.11l9.05-25.06c.03-.09.09-.17.17-.23.08-.06.18-.09.3-.09.15,0,.27.05.37.14.1.09.15.22.15.38v.11l-9.05,25.06c-.09.21-.25.31-.48.31-.15,0-.27-.05-.38-.15-.1-.1-.16-.22-.16-.37h0Z"/>
    <path d="M-311.48,175.04s.03-.12.06-.23c.03-.11.07-.2.12-.26.05-.06.11-.09.2-.09,1.49,0,2.47-.04,2.95-.12.47-.11.75-.36.84-.75l3.55-14.28c.08-.21.12-.4.12-.56,0-.14-.31-.2-.92-.2h-1.5c-1.17,0-2.06.18-2.69.53-.63.35-1.09.82-1.39,1.41-.3.58-.67,1.54-1.13,2.87-.06.15-.15.22-.26.22h-.24c-.18,0-.26-.11-.26-.33l1.84-5.38c.04-.17.13-.25.27-.25h15.36c.18,0,.27.11.27.34l-.86,5.39c0,.05-.03.1-.09.15-.06.05-.12.07-.17.07h-.23c-.17,0-.25-.11-.25-.33.19-1.23.28-2.09.28-2.59,0-.61-.13-1.08-.38-1.39-.26-.31-.59-.51-.99-.59-.41-.08-.94-.12-1.59-.12h-1.53c-.47,0-.78.04-.94.12-.16.08-.29.34-.4.77l-3.56,14.27s-.02.07-.02.1c0,.04-.02.08-.04.13,0,.22.13.35.39.41.46.08,1.42.12,2.89.12.17,0,.25.11.25.34-.06.25-.11.41-.14.48-.03.07-.12.1-.28.1h-9.22c-.18,0-.27-.11-.27-.34h0Z"/>
    <path d="M-295.92,178.19c.32.55.97.83,1.94.83.43,0,.83-.07,1.21-.22.38-.15.7-.36.95-.65.25-.29.38-.64.38-1.05,0-.3-.11-.55-.34-.76-.22-.2-.5-.34-.82-.4l-.97-.2c-.45-.1-.82-.31-1.1-.62-.29-.31-.43-.68-.43-1.12,0-.53.15-1,.44-1.41.29-.41.67-.72,1.15-.94.47-.22.97-.33,1.48-.33.54,0,1.03.13,1.46.39.43.26.65.65.65,1.16,0,.27-.08.51-.23.73s-.37.32-.66.32c-.16,0-.29-.05-.41-.16-.11-.1-.17-.23-.17-.39,0-.15.04-.28.12-.41.08-.13.18-.23.32-.31s.27-.12.41-.12c-.1-.26-.3-.45-.59-.56-.29-.11-.6-.17-.94-.17-.3,0-.6.06-.91.18s-.55.3-.73.54c-.19.24-.28.52-.28.84,0,.22.08.41.23.57.15.16.34.28.57.35l1.05.2c.33.07.64.2.91.38s.49.4.66.68c.16.28.24.59.24.95,0,.44-.12.87-.38,1.31-.25.44-.55.78-.91,1.03-.65.44-1.43.66-2.36.66-.64,0-1.22-.15-1.75-.44-.53-.29-.8-.73-.8-1.31,0-.33.09-.62.28-.86.19-.24.45-.36.78-.36.19,0,.35.06.48.17.14.11.2.27.2.47,0,.27-.1.51-.31.72-.21.21-.45.31-.72.31h-.09Z"/>
  </g>
  <path class="st6" d="M-463.02,128.24V-106.76M-463.02,128.24h3.12M-463.02,94.67h3.12M-463.02,61.1h3.12M-463.02,27.53h3.12M-463.02-6.04h3.12M-463.02-39.61h3.12M-463.02-73.19h3.12M-463.02-106.76h3.12"/>
  <g id="yAxis">
    <text class="st10" transform="translate(-484.22 134.24)"><tspan x="0" y="0">-1</tspan></text>
    <text class="st10" transform="translate(-497.22 100.67)"><tspan x="0" y="0">-0.5</tspan></text>
    <text class="st10" transform="translate(-477.22 67.09)"><tspan x="0" y="0">0</tspan></text>
    <text class="st10" transform="translate(-491.22 33.53)"><tspan x="0" y="0">0.5</tspan></text>
    <text class="st10" transform="translate(-477.22 -.05)"><tspan x="0" y="0">1</tspan></text>
    <text class="st10" transform="translate(-491.22 -33.62)"><tspan x="0" y="0">1.5</tspan></text>
    <text class="st10" transform="translate(-477.22 -67.18)"><tspan x="0" y="0">2</tspan></text>
    <text class="st10" transform="translate(-491.22 -100.76)"><tspan x="0" y="0">2.5</tspan></text>
  </g>
  <text class="st13" transform="translate(-525.23 -88.33) scale(1.03 1)"><tspan x="0" y="0">(a)</tspan></text>
  <g id="yAxisText">
    <path d="M-504.27,37.35c0,.16-.1.24-.31.24-.1,0-.17-.02-.21-.07-.99-.54-1.94-1.19-2.84-1.95-.9-.77-1.82-1.64-2.74-2.61-.92-.97-1.85-1.95-2.77-2.94-.92-.99-1.75-1.78-2.47-2.39v.11c0,.45-.15,1.1-.46,1.96-.31.86-.46,1.54-.46,2.04,0,.54.12,1.06.37,1.56.25.5.63.82,1.13.96.17.02.25.1.25.24v.37c0,.16-.11.24-.33.24h-.1c-.63-.16-1.22-.42-1.76-.78-.55-.36-.99-.8-1.32-1.33-.33-.53-.5-1.08-.5-1.65,0-.4.1-.74.29-1,.19-.27.49-.58.9-.94.41-.36.7-.65.88-.87.18-.22.27-.5.27-.84,0-.45-.21-.85-.64-1.2-.43-.35-.96-.7-1.59-1.05-.06-.06-.1-.13-.1-.22v-.35c0-.07.03-.13.08-.17.05-.04.12-.06.19-.06s.15.02.21.05c.99.55,1.91,1.18,2.77,1.91.86.72,1.85,1.67,2.96,2.85,1.11,1.18,2.05,2.16,2.82,2.97.77.8,1.56,1.56,2.37,2.26-.04-.16-.06-.37-.06-.64,0-.5.15-1.17.44-2.03s.44-1.52.44-1.99c0-.5-.12-1.01-.35-1.53-.23-.52-.56-.96-.97-1.33-.42-.37-.9-.62-1.44-.76-.14-.05-.21-.13-.21-.24v-.36c0-.09.03-.15.1-.2.06-.05.13-.07.21-.07.03,0,.06.01.1.04.81.18,1.58.51,2.32.98.74.47,1.35,1.04,1.82,1.72.48.68.71,1.4.71,2.16,0,.39-.1.72-.29.99-.19.27-.49.58-.9.94s-.71.65-.89.89c-.18.23-.27.51-.27.82,0,1.01.74,1.92,2.23,2.72.08.07.12.14.12.2v.38h0Z"/>
    <path d="M-497.26,21.66c-.06,0-.11-.01-.13-.04l-30.9-10.58c-.12-.04-.21-.1-.28-.2s-.11-.21-.11-.35c0-.17.06-.31.17-.43.12-.12.27-.17.46-.17h.13l30.9,10.58c.26.11.39.3.39.57,0,.17-.06.32-.18.44-.12.12-.27.18-.45.18h0Z"/>
    <path d="M-504.64,6.68c0,.19-.14.29-.42.29-.05-.01-.14-.03-.27-.06-.13-.03-.23-.07-.32-.13-.08-.05-.13-.12-.13-.19,0-1.24-.07-2.11-.21-2.59-.09-.26-.38-.44-.87-.57l-17.61-4.18c-.21-.04-.35-.05-.42-.05-.23,0-.37.12-.4.37-.08.38-.12,1.11-.12,2.19,0,.19-.14.29-.42.29-.05-.01-.14-.03-.28-.05-.13-.02-.24-.06-.32-.12-.08-.05-.12-.12-.12-.21V-7.55c0-.74.09-1.51.27-2.3.18-.79.46-1.52.84-2.17.38-.66.89-1.2,1.52-1.62.64-.43,1.37-.64,2.21-.64,1.08,0,2.04.33,2.89,1,.85.67,1.55,1.52,2.12,2.55.56,1.03.96,2.03,1.19,3,.31-.79.79-1.44,1.45-1.95.66-.5,1.42-.76,2.28-.76.12,0,.2,0,.26,0,.06,0,.12.01.2.03l2.85.24c.41.01.76.03,1.06.05.3.02.53.03.71.03.58,0,1.04-.08,1.39-.24.35-.16.52-.48.52-.97,0-.63-.31-1.19-.92-1.67-.62-.48-1.29-.8-2.02-.94-.19-.1-.29-.19-.29-.29v-.29c0-.19.14-.29.42-.29.62.15,1.2.38,1.75.7.55.32,1.01.73,1.37,1.21.36.49.54,1.02.54,1.59,0,1.19-.28,2.21-.84,3.04-.56.83-1.43,1.25-2.63,1.25-.45,0-.85-.04-1.19-.11l-2.85-.68c-.26-.07-.56-.11-.9-.11-.89,0-1.58.28-2.09.85-.51.57-.76,1.28-.76,2.15V-1.14l8.48,1.99c.18.05.33.07.44.07.23,0,.36-.12.38-.36.08-.39.12-1.11.12-2.17,0-.22.14-.33.42-.33.31.07.5.13.59.17.08.04.13.16.13.36V6.68h0ZM-516.02-1.32v-3.38c0-2.2-.59-3.87-1.77-4.99-.54-.51-1.23-.92-2.07-1.21-.84-.3-1.68-.45-2.51-.45-.78,0-1.4.22-1.85.66-.45.44-.76.98-.92,1.63-.17.65-.25,1.36-.25,2.14v2.05c0,.55.05.91.14,1.1.1.18.42.35.95.49l8.28,1.97h0Z"/>
    <path d="M-501.18-16.74c.68-.38,1.02-1.13,1.02-2.27,0-.5-.09-.97-.27-1.42-.18-.44-.45-.81-.8-1.1-.35-.29-.79-.44-1.3-.44-.37,0-.68.13-.93.39-.25.26-.41.58-.49.96l-.25,1.13c-.13.52-.38.95-.76,1.29-.38.33-.84.5-1.38.5-.66,0-1.23-.17-1.73-.51-.5-.34-.89-.79-1.16-1.34-.27-.55-.4-1.13-.4-1.73,0-.63.16-1.2.48-1.71.32-.5.8-.76,1.43-.76.33,0,.63.09.9.27.26.18.39.44.39.77,0,.18-.06.34-.19.47-.13.13-.29.2-.48.2-.18,0-.35-.05-.51-.14-.16-.09-.29-.22-.39-.37-.1-.16-.14-.32-.14-.47-.32.12-.55.35-.69.69-.14.34-.21.71-.21,1.1,0,.35.07.71.22,1.06s.37.64.66.86c.3.22.64.33,1.04.33.27,0,.5-.09.7-.27.2-.18.34-.4.43-.67l.25-1.22c.09-.39.24-.75.46-1.07.22-.32.5-.58.84-.77.34-.19.73-.28,1.17-.28.54,0,1.08.15,1.62.44.54.29.96.65,1.27,1.06.54.75.81,1.67.81,2.76,0,.74-.18,1.42-.54,2.05-.36.62-.9.93-1.62.93-.41,0-.76-.11-1.06-.33-.3-.22-.44-.52-.44-.91,0-.22.07-.41.21-.57.14-.16.33-.24.58-.24.33,0,.63.12.89.36.26.24.38.52.38.84v.11h0Z"/>
  </g>
  <g id="DNS">
    <polyline id="bottom_x5F_DNS" class="st5" points="-461.98 61.55 -457.59 63.7 -453.29 65.37 -450.28 67.69 -446.26 68.89 -442.86 71.18 -438.81 72.5 -435.71 74.33 -426.7 78.56 -422.61 80.08 -419.22 82.22 -415.17 83.35 -413.12 84.39 -404.81 88.11 -400.61 89.7 -396.56 91.64 -392.22 93.01 -388.05 94.64 -383.31 95.9 -378.72 97.43 -375.82 98.32 -367.06 100.37 -362.25 100.85 -357.23 102.66 -353.16 104 -344.33 107.32 -339.48 107.62 -334.66 107.49 -329.47 106.9 -325.17 105.55 -320.22 103.54 -315.81 101.41 -312.77 100.95 -305.83 96.53 -301.39 95.62 -296.7 93.7 -292.37 92.18 -283 88.68 -278.19 88.32 -273.43 87.24 -268.5 86.05 -263.76 85.01 -258.95 84.07 -254.36 83.1 -251.04 82.48 -242.31 79.82 -237.86 79.24 -233.21 78.11 -228.55 77.3 -217.77 75.82 -212.95 75.48 -208.14 74.73 -203.32 73.83 -198.5 72.67 -193.69 71.34 -189.16 70.68 -180.17 64 -175.74 61.87 -171.2 59.21 -168.07 58.19 -160.41 52.69 -155.6 51.21"/>
    <polyline id="CM-DNS" class="st5" points="-461.8 -5.35 -457.86 -2.18 -454.19 1.64 -450.61 4.99 -446.65 8.38 -442.84 10.77 -434.51 18 -430.52 20.21 -427.95 23.03 -424.46 23.97 -415.71 30.71 -411.69 32.76 -408.91 34.88 -404.31 36.07 -399.93 38.4 -395.66 39.96 -390.71 41.03 -379.32 44.42 -374.51 45.09 -369.69 45.6 -365.97 45.86 -353.93 45.6 -349.11 45.22 -344.3 44.64 -339.48 43.85 -334.66 42.95 -329.85 41.86 -325.03 41 -313.65 37.8 -308.83 36.72 -304.02 35.32 -300.3 34.65 -290.44 30.71 -285.63 29.5 -280.81 28.09 -276 26.6 -271.18 25.02 -266.36 23.41 -262.21 22.34 -251.92 18.03 -247.1 16.72 -242.28 15.2 -238.56 14.61 -229.15 10.46 -224.33 9.12 -219.52 7.31 -214.7 5.68 -209.89 4.14 -205.07 2.65 -200.91 1.62 -190.62 -2.35 -185.81 -3.68 -180.99 -5.24 -177.27 -5.84 -167.42 -9.85 -162.6 -11.29 -157.79 -12.76 -152.97 -14.2"/>
    <polyline id="top_x5F_DNS" class="st5" points="-461.84 -72.45 -457.78 -69.37 -453.75 -65.51 -449.81 -61.91 -445.87 -58.31 -442.46 -56.15 -435.53 -48.47 -431.59 -45.36 -427.98 -41.97 -425.07 -41.57 -418.75 -34.66 -415.39 -33.09 -413.91 -29.85 -411.28 -26.41 -408.66 -22.69 -406.58 -18.91 -405.23 -16.18 -402.53 -16.11 -397.15 -9.31 -392.46 -9.21 -387.64 -9.85 -383.7 -10.44 -373.63 -14.13 -368.81 -15.28 -364 -16.59 -359.18 -17.83 -354.37 -19.2 -349.55 -20.41 -345.17 -21.08 -333.35 -23.52 -328.54 -24.77 -323.72 -26.3 -320.22 -26.87 -309.71 -29.93 -304.89 -31.25 -300.08 -32.78 -295.26 -33.76 -290.44 -34.31 -285.63 -34.37 -281.25 -34.47 -269.26 -36.81 -264.43 -38.48 -259.99 -40.88 -256.95 -42.21 -249.34 -47.84 -244.91 -49.81 -240.1 -52.43 -235.43 -55.03 -230.63 -57.61 -225.65 -60.18 -222.8 -59.99 -214.26 -64.68 -209.45 -65.92 -204.63 -67.44 -200.91 -68.16 -190.62 -71.57 -185.81 -72.61 -180.99 -73.88 -176.17 -75.15 -171.36 -76.32 -166.54 -77.4 -161.95 -78.07"/>
    <polyline id="surface_x5F_DNS" class="st5" points="-459.75 61.56 -458.26 64.19 -454.16 64.8 -451.59 67.17 -447.57 68.25 -444.17 70.55 -440.13 71.86 -436.73 74.1 -426.7 78.56 -422.61 80.08 -419.22 82.22 -415.17 83.35 -413.12 84.39 -404.81 88.11 -400.61 89.7 -396.56 91.64 -392.22 93.01 -388.05 94.64 -383.31 95.9 -378.72 97.43 -375.82 98.32 -367.06 100.37 -362.25 100.85 -357.23 102.66 -353.16 104 -344.33 107.32 -339.48 107.62 -334.66 107.49 -329.47 106.9 -325.17 105.55 -320.22 103.54 -315.81 101.41 -312.77 100.95 -305.83 96.53 -301.39 95.62 -296.7 93.7 -292.37 92.18 -283 88.69 -278.19 88.32 -273.43 87.24 -268.5 86.05 -263.76 85.01 -258.95 84.07 -254.36 83.1 -251.04 82.48 -242.31 79.82 -237.86 79.24 -233.21 78.11 -228.55 77.3 -217.77 75.82 -212.95 75.48 -208.14 74.73 -203.32 73.83 -198.5 72.67 -193.69 71.34 -189.16 70.68 -186.03 70.68 -174.86 70.57 -170.04 70.35 -165.23 70.12 -161.51 70.07"/>
  </g>
  <g id="_x31_PKM">
    <polyline id="top_x5F_1PKM" class="st1" points="-461.57 -70.97 -458.46 -67.84 -454.97 -64.66 -451.1 -61.19 -447.15 -57.59 -443.2 -53.95 -439.26 -50.31 -435.31 -46.71 -431.36 -43.16 -427.42 -39.57 -423.47 -36.01 -419.6 -32.42 -416.01 -28.82 -412.56 -25.24 -409.44 -21.62 -406.37 -18.08 -403.3 -14.6 -400.17 -11.27 -396.44 -7.9 -392.3 -5.67 -388.63 -4.54 -384.44 -4.28 -379.61 -4.77 -374.79 -6.11 -369.89 -7.47 -365.14 -9.46 -360.29 -11.77 -355.52 -14.06 -350.74 -16.24 -346.03 -18.44 -340.9 -20.36 -336.19 -22.43 -331.37 -24.11 -326.55 -25.67 -321.72 -27.14 -316.9 -28.6 -312.07 -30.06 -307.25 -31.48 -302.43 -32.91 -297.6 -34.27 -292.78 -35.58 -287.95 -36.82 -283.13 -38.01 -278.3 -39.15 -273.48 -40.32 -268.66 -41.55 -263.83 -42.91 -259.01 -44.38 -254.18 -46.01 -249.08 -47.57 -244.33 -49.43 -239.71 -51.23 -234.81 -53.42 -229.97 -55.61 -225.19 -57.8 -220.51 -59.96 -215.59 -62.13 -210.66 -64.34 -205.66 -66.49 -201.12 -68.32 -196.29 -70.2 -191.47 -71.82 -186.64 -73.26 -181.82 -74.62 -177 -75.89 -172.17 -77.08 -167.35 -78.2 -162.52 -79.33 -157.7 -80.43 -152.87 -81.51"/>
    <polyline id="CM1PKM" class="st1" points="-461.42 -3.7 -457.98 -.24 -454.17 3.07 -450.22 6.56 -446.18 10.11 -441.98 13.51 -437.85 16.93 -433.56 20.25 -429.07 23.57 -424.76 25.87 -422.18 28.53 -418.18 30.16 -415.16 32.66 -411.09 34.25 -407.32 36.49 -403.08 37.97 -398.1 39.7 -393.21 41.15 -388.38 42.59 -383.56 43.79 -378.74 44.7 -373.91 45.46 -369.09 45.93 -364.26 46.25 -359.44 46.25 -354.61 46.07 -349.79 45.71 -344.97 45.11 -340.14 44.37 -335.32 43.47 -330.49 42.43 -325.67 41.27 -320.85 40.01 -316.02 38.7 -311.2 37.27 -306.37 35.82 -301.55 34.28 -296.72 32.75 -291.9 31.18 -287.08 29.56 -282.25 27.96 -277.43 26.33 -272.6 24.7 -267.78 23.08 -262.95 21.42 -258.13 19.76 -253.31 18.11 -248.48 16.49 -243.66 14.86 -238.83 13.23 -234.01 11.59 -229.19 10.01 -224.36 8.36 -219.54 6.77 -214.71 5.18 -209.89 3.61 -205.06 2.01 -200.24 .43 -195.42 -1.11 -190.59 -2.66 -185.77 -4.23 -180.94 -5.76 -176.12 -7.29 -171.29 -8.81 -166.47 -10.34 -161.65 -11.85 -156.82 -13.34 -152 -14.84"/>
    <polyline id="surface_x5F_1PKM" class="st1" points="-459.82 63.47 -456.41 65.9 -452.32 67.39 -448.62 69.62 -444.21 71.32 -440.39 73.47 -435.98 75.21 -431.94 77.33 -427.7 78.98 -423.28 81.1 -418.74 82.64 -414.66 84.46 -410.11 86.21 -405.05 87.68 -400.23 89.46 -395.4 91.06 -390.58 92.59 -385.75 94.02 -380.93 95.33 -376.1 96.53 -371.28 97.63 -366.46 98.61 -361.63 99.54 -356.81 100.43 -351.98 101.34 -347.16 102.2 -342.33 102.97 -337.51 103.54 -332.69 103.93 -327.86 103.89 -323.04 103.49 -318.21 102.73 -313.39 101.67 -308.57 100.31 -303.74 98.76 -298.92 96.98 -294.09 95.23 -289.27 93.45 -284.44 91.7 -279.62 89.92 -274.8 88.32 -269.97 86.79 -265.15 85.35 -260.32 83.96 -255.5 82.7 -250.67 81.52 -245.85 80.38 -241.03 79.29 -236.2 78.31 -231.23 77.45 -226.45 77.14 -221.73 76.19 -216.91 75.15 -212.08 74.16 -202.43 74.3 -197.61 73.91 -192.78 73.54 -187.96 73.21 -183.14 72.89 -178.31 72.58 -173.49 72.3 -168.66 72.06 -163.84 71.85 -159.01 71.58 -154.19 71.33"/>
    <polyline id="bottom_x5F_1PKM" class="st1" points="-461.09 62.98 -456.7 65.53 -452.32 67.39 -448.62 69.62 -444.21 71.32 -440.39 73.47 -435.98 75.21 -431.94 77.33 -427.7 78.98 -423.28 81.1 -418.74 82.64 -414.66 84.46 -410.11 86.21 -405.05 87.68 -400.23 89.46 -395.4 91.06 -390.58 92.59 -385.75 94.02 -380.93 95.33 -376.1 96.53 -371.28 97.63 -366.46 98.61 -361.63 99.54 -356.81 100.43 -351.98 101.34 -347.16 102.2 -342.33 102.97 -337.51 103.54 -332.69 103.93 -327.86 103.89 -323.04 103.49 -318.21 102.73 -313.39 101.67 -308.57 100.31 -303.74 98.76 -298.92 96.98 -294.09 95.23 -289.27 93.45 -284.44 91.69 -279.62 89.92 -274.8 88.32 -269.97 86.79 -265.15 85.35 -260.32 83.96 -255.5 82.7 -250.67 81.52 -245.85 80.38 -241.03 79.29 -236.2 78.31 -231.23 77.45 -226.45 77.14 -221.73 76.19 -216.91 75.15 -212.08 74.16 -207.26 73.07 -202.43 70.12 -197.61 68.82 -192.78 67.41 -187.96 65.91 -183.14 64.28 -178.31 62.53 -173.28 60.89 -168.72 59.28 -163.81 57.29 -158.96 55.33 -154.11 53.36"/>
  </g>
  <g id="EXP">
    <polyline id="top_x5F_exp" class="st7" points="-462.19 -72.28 -458.26 -69.12 -454.59 -65.44 -451.15 -62.41 -448.25 -62.16 -435.07 -46.31 -431.07 -43.32 -426.95 -39.76 -422.94 -36.96 -420.04 -36.42 -409.05 -19.67 -405.67 -16.53 -402.55 -12.94 -399.49 -9.97 -396.21 -10.12 -372.81 -13.84 -368 -15.14 -363.19 -16.35 -358.38 -17.69 -354.44 -18.6 -329.95 -23.31 -325.14 -24.19 -320.33 -25.14 -315.52 -26.26 -311.36 -26.98 -287.09 -31.98 -282.28 -31.7 -277.47 -31.89 -272.66 -32.38 -268.07 -32.81 -246.04 -42.58 -241.61 -44.53 -236.8 -47.13 -232.19 -49.5 -228.93 -50.53 -207.81 -59.11 -203.34 -60.65 -198.31 -63.07 -193.5 -64.59 -190.01 -64.93 -166.39 -70.69 -161.58 -71.6 -156.77 -72.76 -151.96 -73.73"/>
    <polyline id="bottom_x5F_exp" class="st7" points="-422.72 79.82 -418.68 81.66 -415.31 83.97 -411.04 85.45 -407.2 86.79 -383.74 94.81 -378.93 96.76 -374.12 98 -369.31 99.52 -365.59 100.26 -342.2 107.06 -337.39 107.48 -332.58 106.97 -327.76 105.86 -323.83 105.01 -301.09 95.63 -296.16 94.65 -291.65 92.64 -286.66 90.99 -282.94 90.42 -259.1 85.22"/>
  </g>
  <g id="KM">
    <polyline id="surfaceKM" class="st2" points="-463.02 61.1 -463.01 61.11 -462.99 61.12 -462.97 61.15 -462.91 61.2 -462.86 61.24 -462.81 61.28 -462.59 61.41 -462.38 61.5 -462.16 61.55 -462.06 61.56 -461.95 61.58 -461.73 61.61 -461.52 61.65 -461.31 61.72 -459.8 62.79 -459.59 62.95 -459.38 63.1 -459.16 63.22 -458.95 63.32 -458.73 63.4 -458.52 63.47 -458.3 63.52 -458.09 63.57 -457.87 63.62 -457.66 63.67 -457.45 63.74 -457.23 63.81 -457.02 63.9 -456.8 64 -456.59 64.11 -456.37 64.24 -456.16 64.37 -455.94 64.5 -455.73 64.63 -455.52 64.76 -455.3 64.88 -455.09 65 -454.87 65.11 -454.66 65.2 -454.44 65.29 -454.23 65.38 -454.01 65.46 -453.8 65.55 -453.59 65.64 -453.37 65.73 -453.16 65.84 -452.94 65.95 -452.73 66.07 -452.51 66.19 -452.3 66.32 -452.08 66.45 -451.87 66.59 -451.66 66.72 -451.44 66.84 -451.23 66.96 -451.01 67.08 -450.8 67.19 -450.58 67.29 -450.37 67.39 -450.15 67.48 -449.94 67.58 -449.73 67.67 -449.51 67.76 -449.3 67.86 -449.08 67.96 -448.87 68.07 -448.65 68.18 -448.44 68.3 -448.22 68.41 -448.01 68.54 -447.8 68.66 -447.58 68.78 -447.37 68.89 -447.15 69.01 -446.94 69.11 -446.72 69.21 -446.51 69.31 -446.29 69.41 -446.08 69.5 -445.87 69.59 -445.65 69.68 -445.44 69.77 -445.22 69.86 -445.01 69.96 -444.79 70.07 -444.58 70.18 -444.36 70.29 -444.15 70.4 -443.94 70.51 -443.72 70.63 -443.51 70.74 -443.29 70.85 -443.08 70.96 -442.86 71.06 -442.65 71.16 -442.43 71.26 -442.22 71.35 -442.01 71.44 -441.79 71.53 -441.58 71.62 -441.36 71.71 -441.15 71.81 -440.93 71.91 -440.72 72.01 -440.51 72.12 -440.29 72.23 -440.08 72.33 -439.86 72.45 -439.65 72.56 -439.43 72.67 -439.22 72.78 -439 72.89 -438.79 72.99 -438.58 73.09 -438.36 73.19 -438.15 73.29 -437.93 73.38 -437.72 73.47 -437.5 73.56 -437.29 73.66 -437.07 73.75 -436.86 73.85 -436.65 73.96 -436.43 74.06 -436.22 74.17 -436 74.28 -435.79 74.39 -435.57 74.5 -435.36 74.61 -435.14 74.72 -434.93 74.83 -434.72 74.93 -434.5 75.04 -434.29 75.13 -434.07 75.23 -433.86 75.32 -433.64 75.42 -433.43 75.51 -433.21 75.6 -433 75.7 -432.79 75.8 -432.57 75.9 -432.36 76.01 -432.14 76.11 -431.93 76.23 -431.71 76.34 -431.5 76.45 -431.28 76.55 -431.07 76.66 -430.86 76.76 -430.64 76.86 -430.43 76.96 -430.21 77.06 -430 77.15 -429.78 77.24 -429.57 77.33 -429.35 77.43 -429.14 77.52 -428.93 77.62 -428.71 77.72 -428.5 77.82 -428.28 77.92 -428.07 78.03 -427.85 78.14 -427.64 78.24 -427.42 78.35 -427.21 78.45 -427 78.55 -426.78 78.65 -426.57 78.75 -426.35 78.85 -426.14 78.94 -425.92 79.03 -425.71 79.12 -425.49 79.22 -425.28 79.31 -425.07 79.4 -424.85 79.5 -424.64 79.59 -424.42 79.69 -424.21 79.79 -423.99 79.89 -423.78 79.99 -423.56 80.09 -423.35 80.19 -423.14 80.29 -422.92 80.39 -422.71 80.49 -422.49 80.58 -422.28 80.68 -422.06 80.77 -421.85 80.86 -421.63 80.95 -421.42 81.04 -421.21 81.13 -420.99 81.22 -420.78 81.31 -420.56 81.4 -420.35 81.5 -420.13 81.59 -419.92 81.69 -419.71 81.79 -419.49 81.88 -419.28 81.98 -419.06 82.08 -418.85 82.17 -418.63 82.27 -418.42 82.36 -418.2 82.45 -417.99 82.54 -417.78 82.63 -417.56 82.72 -417.35 82.8 -417.13 82.89 -416.92 82.97 -416.7 83.06 -416.49 83.15 -416.27 83.23 -416.06 83.32 -415.85 83.41 -415.63 83.51 -415.42 83.6 -415.2 83.69 -414.99 83.79 -414.77 83.89 -414.56 83.98 -414.34 84.07 -414.13 84.16 -413.92 84.25 -413.7 84.34 -413.49 84.43 -413.27 84.51 -413.06 84.59 -412.84 84.67 -412.63 84.75 -412.41 84.83 -412.2 84.91 -411.99 84.99 -411.77 85.08 -411.56 85.17 -411.34 85.26 -411.13 85.34 -410.91 85.43 -410.7 85.53 -410.48 85.62 -410.27 85.7 -410.06 85.79 -409.84 85.87 -409.63 85.96 -409.41 86.03 -409.2 86.11 -408.98 86.19 -408.77 86.26 -408.55 86.34 -408.34 86.42 -408.13 86.49 -407.91 86.57 -407.7 86.66 -407.48 86.75 -407.27 86.84 -407.05 86.93 -406.84 87.03 -406.62 87.13 -406.41 87.22 -406.2 87.32 -405.98 87.41 -405.77 87.49 -405.55 87.57 -405.34 87.65 -405.12 87.71 -404.91 87.78 -404.69 87.83 -404.48 87.89 -404.27 87.95 -404.05 88.01 -403.84 88.07 -403.62 88.14 -403.41 88.21 -403.19 88.29 -402.98 88.38 -402.76 88.47 -402.55 88.57 -402.34 88.67 -402.12 88.78 -401.91 88.88 -401.69 88.99 -401.48 89.09 -401.26 89.18 -401.05 89.28 -400.83 89.36 -400.62 89.44 -400.41 89.51 -400.19 89.57 -399.98 89.63 -399.76 89.67 -399.55 89.72 -399.33 89.75 -399.12 89.78 -398.91 89.81 -398.69 89.84 -398.48 89.88 -398.26 89.92 -398.05 89.97 -397.83 90.02 -397.62 90.09 -397.4 90.17 -397.19 90.27 -396.98 90.37 -396.76 90.49 -396.55 90.61 -396.33 90.75 -396.12 90.88 -395.9 91.02 -395.69 91.15 -395.47 91.28 -395.26 91.4 -395.05 91.52 -394.83 91.62 -394.62 91.71 -394.4 91.79 -394.19 91.85 -393.97 91.9 -393.76 91.94 -393.54 91.97 -393.33 91.99 -393.12 92 -392.9 92 -392.69 92 -392.47 92 -392.26 91.99 -392.04 91.99 -391.83 91.99 -391.61 91.99 -391.4 92 -391.19 92.01 -390.97 92.04 -390.76 92.07 -390.54 92.11 -390.33 92.16 -390.11 92.23 -389.9 92.3 -389.68 92.39 -389.47 92.48 -389.26 92.58 -389.04 92.7 -388.83 92.82 -388.61 92.94 -388.4 93.08 -388.18 93.21 -387.97 93.36 -387.75 93.5 -387.54 93.65 -387.33 93.79 -387.11 93.93 -386.9 94.07 -386.68 94.2 -386.47 94.33 -386.25 94.45 -386.04 94.56 -385.82 94.67 -385.61 94.76 -385.4 94.85 -385.18 94.92 -384.97 94.98 -384.75 95.04 -384.54 95.08 -384.32 95.11 -384.11 95.14 -383.89 95.15 -383.68 95.17 -383.47 95.17 -383.25 95.16 -383.04 95.15 -382.82 95.14 -382.61 95.11 -382.39 95.09 -382.18 95.06 -381.96 95.03 -381.75 95 -381.54 94.97 -381.32 94.94 -381.11 94.91 -380.89 94.88 -380.68 94.86 -380.46 94.84 -380.25 94.82 -380.03 94.81 -379.82 94.81 -379.61 94.81 -379.39 94.82 -379.18 94.84 -378.96 94.87 -378.75 94.9 -378.53 94.94 -378.32 94.98 -378.11 95.04 -377.89 95.1 -377.68 95.17 -377.46 95.25 -377.25 95.33 -377.03 95.42 -376.82 95.52 -376.6 95.62 -376.39 95.73 -376.18 95.85 -375.96 95.97 -375.75 96.09 -375.53 96.22 -375.32 96.36 -375.1 96.49 -374.89 96.63 -374.67 96.78 -374.46 96.92 -374.25 97.06 -374.03 97.21 -373.82 97.35 -373.6 97.49 -373.39 97.63 -373.17 97.77 -372.96 97.9 -372.74 98.04 -372.53 98.17 -372.32 98.29 -372.1 98.41 -371.89 98.53 -371.67 98.65 -371.46 98.76 -371.24 98.86 -371.03 98.96 -370.81 99.05 -370.6 99.14 -370.39 99.22 -370.17 99.3 -369.96 99.37 -369.74 99.44 -369.53 99.5 -369.31 99.55 -369.1 99.6 -368.88 99.64 -368.67 99.67 -368.46 99.7 -368.24 99.72 -368.03 99.74 -367.81 99.75 -367.6 99.75 -367.38 99.75 -367.17 99.74 -366.95 99.73 -366.74 99.71 -366.53 99.68 -366.31 99.66 -366.1 99.63 -365.88 99.59 -365.67 99.56 -365.45 99.52 -365.24 99.48 -365.02 99.43 -364.81 99.39 -364.6 99.34 -364.38 99.29 -364.17 99.23 -363.95 99.18 -363.74 99.13 -363.52 99.07 -363.31 99.01 -363.09 98.95 -362.88 98.88 -362.67 98.82 -362.45 98.76 -362.24 98.7 -362.02 98.64 -361.81 98.58 -361.59 98.52 -361.38 98.46 -361.16 98.41 -360.95 98.36 -360.74 98.31 -360.52 98.27 -360.31 98.23 -360.09 98.2 -359.88 98.16 -359.66 98.13 -359.45 98.1 -359.23 98.08 -359.02 98.05 -358.81 98.03 -358.59 98.01 -358.38 97.99 -358.16 97.97 -357.95 97.95 -357.73 97.94 -357.52 97.93 -357.31 97.92 -357.09 97.92 -356.88 97.92 -356.66 97.92 -356.45 97.93 -356.23 97.95 -356.02 97.98 -355.8 98.01 -355.59 98.04 -355.38 98.09 -355.16 98.14 -354.95 98.19 -354.73 98.25 -354.52 98.32 -354.3 98.38 -354.09 98.45 -353.87 98.52 -353.66 98.6 -353.45 98.67 -353.23 98.74 -353.02 98.82 -352.8 98.89 -352.59 98.96 -352.37 99.03 -352.16 99.11 -351.94 99.18 -351.73 99.26 -351.52 99.34 -351.3 99.42 -351.09 99.51 -350.87 99.6 -350.66 99.7 -350.44 99.8 -350.23 99.91 -350.01 100.03 -349.8 100.15 -349.59 100.28 -349.37 100.41 -349.16 100.55 -348.94 100.69 -348.73 100.84 -348.51 100.98 -348.3 101.13 -348.08 101.27 -347.87 101.41 -347.66 101.55 -347.44 101.69 -347.23 101.82 -347.01 101.95 -346.8 102.07 -346.58 102.19 -346.37 102.3 -346.15 102.41 -345.94 102.52 -345.73 102.63 -345.51 102.73 -345.3 102.84 -345.08 102.94 -344.87 103.05 -344.65 103.16 -344.44 103.27 -344.22 103.38 -344.01 103.5 -343.8 103.61 -343.58 103.73 -343.37 103.85 -343.15 103.98 -342.94 104.1 -342.72 104.23 -342.51 104.35 -342.29 104.48 -342.08 104.61 -341.87 104.74 -341.65 104.86 -341.44 104.99 -341.22 105.12 -341.01 105.24 -340.79 105.37 -340.58 105.5 -340.36 105.63 -340.15 105.75 -339.94 105.88 -339.72 106 -339.51 106.12 -339.29 106.24 -339.08 106.35 -338.86 106.46 -338.65 106.56 -338.43 106.66 -338.22 106.75 -338.01 106.83 -337.79 106.91 -337.58 106.98 -337.36 107.04 -337.15 107.1 -336.93 107.15 -336.72 107.19 -336.51 107.23 -336.29 107.26 -336.08 107.29 -335.86 107.32 -335.65 107.34 -335.43 107.37 -335.22 107.39 -335 107.42 -334.79 107.45 -334.58 107.48 -334.36 107.51 -334.15 107.55 -333.93 107.59 -333.72 107.63 -333.5 107.68 -333.29 107.73 -333.07 107.78 -332.86 107.83 -332.65 107.88 -332.43 107.94 -332.22 107.99 -332 108.04 -331.79 108.09 -331.57 108.14 -331.36 108.18 -331.14 108.22 -330.93 108.26 -330.72 108.29 -330.5 108.31 -330.29 108.33 -330.07 108.35 -329.86 108.35 -329.64 108.36 -329.43 108.35 -329.21 108.34 -329 108.32 -328.79 108.3 -328.57 108.27 -328.36 108.24 -328.14 108.2 -327.93 108.16 -327.71 108.11 -327.5 108.06 -327.28 108.01 -327.07 107.95 -326.86 107.9 -326.64 107.83 -326.43 107.77 -326.21 107.7 -326 107.64 -325.78 107.57 -325.57 107.49 -325.35 107.42 -325.14 107.35 -324.93 107.27 -324.71 107.2 -324.5 107.12 -324.28 107.04 -324.07 106.97 -323.85 106.89 -323.64 106.81 -323.42 106.73 -323.21 106.66 -323 106.58 -322.78 106.51 -322.57 106.43 -322.35 106.36 -322.14 106.29 -321.92 106.22 -321.71 106.15 -321.49 106.09 -321.28 106.03 -321.07 105.96 -320.85 105.9 -320.64 105.85 -320.42 105.79 -320.21 105.74 -319.99 105.69 -319.78 105.64 -319.56 105.59 -319.35 105.54 -319.14 105.49 -318.92 105.45 -318.71 105.4 -318.49 105.36 -318.28 105.32 -318.06 105.27 -317.85 105.23 -317.63 105.18 -317.42 105.13 -317.21 105.08 -316.99 105.02 -316.78 104.96 -316.56 104.89 -316.35 104.82 -316.13 104.75 -315.92 104.66 -315.71 104.57 -315.49 104.48 -315.28 104.38 -315.06 104.27 -314.85 104.16 -314.63 104.04 -314.42 103.92 -314.2 103.8 -313.99 103.67 -313.78 103.55 -313.56 103.42 -313.35 103.28 -313.13 103.15 -312.92 103.02 -312.7 102.89 -312.49 102.76 -312.27 102.63 -312.06 102.5 -311.85 102.37 -311.63 102.24 -311.42 102.12 -311.2 101.99 -310.99 101.87 -310.77 101.75 -310.56 101.62 -310.34 101.5 -310.13 101.38 -309.92 101.26 -309.7 101.14 -309.49 101.02 -309.27 100.9 -309.06 100.78 -308.84 100.66 -308.63 100.54 -308.41 100.42 -308.2 100.3 -307.99 100.18 -307.77 100.06 -307.56 99.95 -307.34 99.83 -307.13 99.71 -306.91 99.59 -306.7 99.47 -306.48 99.34 -306.27 99.22 -306.06 99.1 -305.84 98.97 -305.63 98.84 -305.41 98.71 -305.2 98.58 -304.98 98.45 -304.77 98.31 -304.55 98.18 -304.34 98.04 -304.13 97.9 -303.91 97.76 -303.7 97.63 -303.48 97.49 -303.27 97.35 -303.05 97.22 -302.84 97.09 -302.62 96.96 -302.41 96.84 -302.2 96.72 -301.98 96.6 -301.77 96.49 -301.55 96.38 -301.34 96.27 -301.12 96.17 -300.91 96.07 -300.69 95.98 -300.48 95.9 -300.27 95.81 -300.05 95.73 -299.84 95.65 -299.62 95.58 -299.41 95.5 -299.19 95.43 -298.98 95.36 -298.76 95.29 -298.55 95.23 -298.34 95.16 -298.12 95.09 -297.91 95.03 -297.69 94.96 -297.48 94.89 -297.26 94.82 -297.05 94.75 -296.83 94.68 -296.62 94.61 -296.41 94.54 -296.19 94.47 -295.98 94.39 -295.76 94.32 -295.55 94.24 -295.33 94.16 -295.12 94.08 -294.91 94 -294.69 93.92 -294.48 93.83 -294.26 93.75 -294.05 93.66 -293.83 93.57 -293.62 93.48 -293.4 93.39 -293.19 93.29 -292.98 93.19 -292.76 93.1 -292.55 93 -292.33 92.89 -292.12 92.79 -291.9 92.68 -291.69 92.57 -291.47 92.46 -291.26 92.35 -291.05 92.23 -290.83 92.11 -290.62 91.99 -290.4 91.86 -290.19 91.73 -289.97 91.59 -289.76 91.46 -289.54 91.31 -289.33 91.17 -289.12 91.02 -288.9 90.87 -288.69 90.71 -288.47 90.55 -288.26 90.39 -288.04 90.22 -287.83 90.06 -287.61 89.89 -287.4 89.72 -287.19 89.56 -286.97 89.39 -286.76 89.22 -286.54 89.06 -286.33 88.9 -286.11 88.75 -285.9 88.61 -285.68 88.48 -285.47 88.34 -285.26 88.22 -285.04 88.09 -284.83 87.97 -284.61 87.85 -284.4 87.74 -284.18 87.63 -283.97 87.51 -283.75 87.41 -283.54 87.3 -283.33 87.19 -283.11 87.09 -282.9 86.99 -282.68 86.89 -282.47 86.79 -282.25 86.69 -282.04 86.59 -281.82 86.5 -281.61 86.41 -281.4 86.31 -281.18 86.22 -280.97 86.13 -280.75 86.04 -280.54 85.96 -280.32 85.87 -279.92 85.71 -279.79 85.7 -279.68 85.68 -279.47 85.63 -279.25 85.57 -279.04 85.51 -278.82 85.46 -278.61 85.42 -278.39 85.39 -278.18 85.37 -277.96 85.36 -277.75 85.36 -277.54 85.36 -277.32 85.37 -277.11 85.37 -276.89 85.37 -276.68 85.37 -276.46 85.36 -276.25 85.35 -276.03 85.33 -275.82 85.31 -275.61 85.28 -275.39 85.25 -275.18 85.22 -274.96 85.19 -274.75 85.15 -274.53 85.13 -274.32 85.1 -274.11 85.07 -273.89 85.05 -273.68 85.02 -273.46 85 -273.25 84.97 -273.03 84.94 -272.82 84.91 -272.6 84.88 -272.39 84.84 -272.18 84.8 -271.96 84.75 -271.75 84.71 -271.53 84.65 -271.32 84.6 -271.1 84.55 -270.89 84.5 -270.67 84.45 -270.46 84.4 -270.25 84.35 -270.03 84.31 -269.82 84.27 -269.6 84.22 -269.39 84.18 -269.17 84.14 -268.96 84.1 -268.74 84.06 -268.53 84.01 -268.32 83.97 -268.1 83.92 -267.89 83.87 -267.67 83.81 -267.46 83.76 -267.24 83.7 -267.03 83.64 -266.81 83.58 -266.6 83.52 -266.39 83.45 -266.17 83.39 -265.96 83.33 -265.74 83.27 -265.53 83.2 -265.31 83.14 -265.1 83.08 -264.88 83.01 -264.67 82.95 -264.46 82.88 -264.24 82.81 -264.03 82.74 -263.81 82.67 -263.6 82.6 -263.38 82.53 -263.17 82.46 -262.95 82.39 -262.74 82.32 -262.53 82.25 -262.31 82.19 -262.1 82.13 -261.88 82.07 -261.67 82.01 -261.45 81.95 -261.24 81.9 -261.02 81.84 -260.81 81.79 -260.6 81.74 -260.38 81.69 -260.17 81.64 -259.95 81.59 -259.74 81.53 -259.52 81.48 -259.31 81.43 -259.09 81.37 -258.88 81.32 -258.67 81.26 -258.45 81.21 -258.24 81.15 -258.02 81.1 -257.81 81.04 -257.59 80.99 -257.38 80.94 -257.16 80.88 -256.95 80.83 -256.74 80.78 -256.52 80.72 -256.31 80.67 -256.09 80.62 -255.88 80.56 -255.66 80.51 -255.45 80.46 -255.23 80.41 -255.02 80.36 -254.81 80.31 -254.59 80.26 -254.38 80.21 -254.16 80.17 -253.95 80.12 -253.73 80.09 -253.52 80.05 -253.31 80.01 -253.09 79.98 -252.88 79.95 -252.66 79.91 -252.45 79.88 -252.23 79.85 -252.02 79.82 -251.8 79.8 -251.59 79.77 -251.38 79.74 -251.16 79.71 -250.95 79.68 -250.73 79.66 -250.52 79.63 -250.3 79.6 -250.09 79.57 -249.87 79.54 -249.66 79.52 -249.45 79.49 -249.23 79.47 -249.02 79.44 -248.8 79.42 -248.59 79.39 -248.37 79.37 -248.16 79.34 -247.94 79.32 -247.73 79.3 -247.52 79.28 -247.3 79.25 -247.09 79.23 -246.87 79.2 -246.66 79.18 -246.44 79.15 -246.23 79.12 -246.01 79.09 -245.8 79.06 -245.59 79.02 -245.37 78.98 -245.16 78.94 -244.94 78.9 -244.73 78.85 -244.51 78.8 -244.3 78.75 -244.08 78.69 -243.87 78.63 -243.66 78.56 -243.44 78.5 -243.23 78.42 -243.01 78.35 -242.8 78.27 -242.58 78.19 -242.37 78.13 -242.15 78.07 -241.94 78.02 -241.73 77.97 -241.51 77.92 -241.3 77.88 -241.08 77.83 -240.87 77.79 -240.65 77.75 -240.44 77.71 -240.22 77.67 -240.01 77.63 -239.8 77.59 -239.58 77.55 -239.37 77.51 -239.15 77.47 -238.94 77.44 -238.72 77.4 -238.51 77.37 -238.29 77.33 -238.08 77.29 -237.87 77.26 -237.65 77.23 -237.44 77.19 -237.22 77.16 -237.01 77.12 -236.79 77.09 -236.58 77.06 -236.36 77.03 -236.15 76.99 -235.94 76.96 -235.72 76.93 -235.51 76.9 -235.29 76.87 -235.08 76.83 -234.86 76.8 -234.65 76.77 -234.43 76.74 -234.22 76.71 -234.01 76.68 -233.79 76.65 -233.58 76.62 -233.36 76.59 -233.15 76.56 -232.93 76.53 -232.72 76.51 -232.51 76.48 -232.29 76.45 -232.08 76.42 -231.86 76.39 -231.65 76.36 -231.43 76.33 -231.22 76.31 -231 76.28 -230.79 76.25 -230.58 76.22 -230.36 76.2 -230.15 76.17 -229.93 76.14 -229.72 76.11 -229.5 76.09 -229.29 76.06 -229.07 76.03 -228.86 76.01 -228.65 75.98 -228.43 75.95 -228.22 75.93 -228 75.9 -227.79 75.88 -227.57 75.85 -227.36 75.82 -227.14 75.8 -226.93 75.77 -226.72 75.75 -226.5 75.72 -226.29 75.7 -226.07 75.67 -225.86 75.65 -225.64 75.62 -225.43 75.6 -225.21 75.58 -225 75.55 -224.79 75.53 -224.57 75.5 -224.36 75.48 -224.14 75.45 -223.93 75.43 -223.71 75.41 -223.5 75.38 -223.28 75.36 -223.07 75.33 -222.86 75.31 -222.64 75.29 -222.43 75.26 -222.21 75.24 -222 75.22 -221.78 75.19 -221.57 75.17 -221.35 75.15 -221.14 75.13 -220.93 75.1 -220.71 75.08 -220.5 75.06 -220.28 75.04 -220.07 75.01 -219.85 74.99 -219.64 74.97 -219.42 74.95 -219.21 74.92 -219 74.9 -218.78 74.88 -218.57 74.86 -218.35 74.84 -218.14 74.81 -217.92 74.79 -217.71 74.77 -217.49 74.75 -217.28 74.73 -217.07 74.71 -216.85 74.69 -216.64 74.67 -216.42 74.64 -216.21 74.62 -215.99 74.6 -215.78 74.58 -215.56 74.56 -215.35 74.54 -215.14 74.52 -214.92 74.5 -214.71 74.48 -214.49 74.46 -214.28 74.44 -214.06 74.42 -213.85 74.4 -213.63 74.38 -213.42 74.36 -213.21 74.34 -212.99 74.32 -212.78 74.3 -212.56 74.28 -212.35 74.26 -212.13 74.24 -211.92 74.22 -211.71 74.2 -211.49 74.18 -211.28 74.16 -211.06 74.14 -210.85 74.12 -210.63 74.1 -210.42 74.08 -210.2 74.06 -209.99 74.04 -209.78 74.02 -209.56 74.01 -209.35 73.99 -209.13 73.97 -208.92 73.95 -208.7 73.93 -208.49 73.91 -208.27 73.89 -208.06 73.87 -207.85 73.86 -207.63 73.84 -207.42 73.82 -207.2 73.8 -206.99 73.78 -206.77 73.76 -206.56 73.74 -206.34 73.73 -206.13 73.71 -205.92 73.69 -205.7 73.67 -205.49 73.65 -205.27 73.64 -205.06 73.62 -204.84 73.6 -204.63 73.58 -204.41 73.57 -204.2 73.55 -203.99 73.53 -203.77 73.51 -203.56 73.5 -203.34 73.48 -203.13 73.46 -202.91 73.44 -202.7 73.43 -202.48 73.41 -202.27 73.39 -202.06 73.37 -201.84 73.36 -201.63 73.34 -201.41 73.32 -201.2 73.31 -200.98 73.29 -200.77 73.27 -200.55 73.26 -200.34 73.24 -200.13 73.22 -199.91 73.21 -199.7 73.19 -199.48 73.17 -199.27 73.16 -199.05 73.14 -198.84 73.13 -198.62 73.11 -198.41 73.09 -198.2 73.08 -197.98 73.06 -197.77 73.04 -197.55 73.03 -197.34 73.01 -197.12 72.99 -196.91 72.98 -196.69 72.96 -196.48 72.95 -196.27 72.93 -196.05 72.92 -195.84 72.9 -195.62 72.88 -195.41 72.87 -195.19 72.85 -194.98 72.84 -194.76 72.82 -194.55 72.81 -194.34 72.79 -194.12 72.78 -193.91 72.76 -193.69 72.74 -193.48 72.73 -193.26 72.71 -193.05 72.7 -192.83 72.68 -192.62 72.67 -192.41 72.65 -192.19 72.64 -191.98 72.62 -191.76 72.61 -191.55 72.59 -191.33 72.58 -191.12 72.56 -190.91 72.55 -190.69 72.53 -190.48 72.52 -190.26 72.5 -190.05 72.49 -189.83 72.48 -189.62 72.46 -189.4 72.45 -189.19 72.43 -188.98 72.42 -188.76 72.4 -188.55 72.39 -188.33 72.37 -188.12 72.36 -187.9 72.35 -187.69 72.33 -187.47 72.32 -187.26 72.3 -187.05 72.29 -186.83 72.27 -186.62 72.26 -186.4 72.24 -186.19 72.23 -185.97 72.22 -185.76 72.2 -185.54 72.19 -185.33 72.18 -185.12 72.16 -184.9 72.15 -184.69 72.13 -184.47 72.12 -184.26 72.11 -184.04 72.09 -183.83 72.08 -183.61 72.07 -183.4 72.05 -183.19 72.04 -182.97 72.03 -182.76 72.01 -182.54 72 -182.33 71.99 -182.11 71.97 -181.9 71.96 -181.68 71.95 -181.47 71.93 -181.26 71.92 -181.04 71.9 -180.83 71.89 -180.61 71.88 -180.4 71.87 -180.18 71.85 -179.97 71.84 -179.75 71.83 -179.54 71.81 -179.33 71.8 -179.11 71.79 -178.9 71.77 -178.68 71.76 -178.47 71.75 -178.25 71.74 -178.04 71.72 -177.82 71.71 -177.61 71.7 -177.4 71.68 -177.18 71.67 -176.97 71.66 -176.75 71.65 -176.54 71.63 -176.32 71.62 -176.11 71.61 -175.89 71.6 -175.68 71.58 -175.47 71.57 -175.25 71.56 -175.04 71.55 -174.82 71.54 -174.61 71.52 -174.39 71.51 -174.18 71.5 -173.96 71.48 -173.75 71.47 -173.54 71.46 -173.32 71.45 -173.11 71.44 -172.89 71.43 -172.68 71.41 -172.46 71.4 -172.25 71.39 -172.03 71.38 -171.82 71.36 -171.61 71.35 -171.39 71.34 -171.18 71.33 -170.96 71.32 -170.75 71.31 -170.53 71.29 -170.32 71.28 -170.11 71.27 -169.89 71.26 -169.68 71.25 -169.46 71.24 -169.25 71.22 -169.03 71.21 -168.82 71.2 -168.6 71.19 -168.39 71.18 -168.18 71.17 -167.96 71.15 -167.75 71.14 -167.53 71.13 -167.32 71.12 -167.1 71.11 -166.89 71.1 -166.67 71.09 -166.46 71.07 -166.25 71.06 -166.03 71.05 -165.82 71.04 -165.6 71.03 -165.39 71.02 -165.17 71.01 -164.96 71 -164.74 70.98 -164.53 70.97 -164.32 70.96 -164.1 70.95 -163.89 70.94 -163.67 70.93 -163.46 70.92 -163.24 70.91 -163.03 70.9 -162.81 70.89 -162.6 70.87 -162.39 70.86 -162.17 70.85 -161.96 70.84 -161.74 70.83 -161.53 70.82 -161.31 70.81 -161.1 70.8 -160.88 70.79 -160.67 70.78 -160.46 70.77 -160.24 70.76 -160.03 70.74 -159.81 70.73 -159.6 70.72 -159.38 70.71 -159.17 70.7 -158.95 70.69 -158.74 70.68 -158.53 70.67 -158.31 70.66 -158.1 70.65 -157.88 70.64 -157.67 70.63 -157.45 70.62 -157.24 70.61 -157.02 70.6 -156.81 70.59 -156.6 70.58 -156.38 70.57 -156.17 70.56 -155.95 70.55 -155.74 70.54 -155.52 70.53 -155.31 70.52 -155.09 70.51 -154.88 70.5 -154.67 70.49 -154.45 70.48 -154.24 70.47 -154.02 70.46 -153.81 70.45 -153.59 70.44 -153.38 70.43 -153.16 70.42 -152.95 70.41 -152.74 70.4 -152.52 70.39 -152.31 70.38 -152.09 70.37 -151.88 70.36 -151.66 70.35 -151.45 70.34 -151.23 70.33 -151.02 70.32"/>
    <path id="topbottomKM" class="st3" d="M-463.02,61.1h.01s.01.03.01.03l.03.02.05.05.05.04.05.04.22.13.21.08.22.05.11.02h.11s.21.05.21.05l.21.05.21.07,1.5,1.06.21.16.21.15.21.12.21.1.21.08.21.06.22.05.21.05.21.05.21.05.21.06.21.07.21.09.22.1.21.11.21.12.21.13.21.13.22.13.21.13.22.12.21.11.21.11.21.1.21.09.22.09.21.08.22.09.21.09.21.1.22.1.21.11.21.12.21.12.21.13.21.13.21.13.21.13.21.13.21.12.21.12.21.11.21.1.21.1.21.1.21.09.21.09.21.09.21.1.21.1.21.11.21.11.21.12.21.12.21.12.21.12.21.12.22.12.21.11.21.11.21.1.21.1.21.09.21.09.22.09.21.09.21.09.21.1.21.1.22.1.21.11.21.11.21.11.21.11.21.11.21.11.22.11.21.11.21.1.21.1.21.1.21.09.21.09.21.09.21.09.21.09.21.09.21.1.21.1.21.11.21.11.21.11.21.11.21.11.21.11.21.11.21.11.21.11.21.1.22.1.21.1.21.09.21.09.22.09.21.09.21.1.22.1.21.1.22.11.21.11.21.11.21.11.21.11.21.11.21.11.22.11.21.1.21.1.21.1.21.09.22.09.21.09.21.09.21.09.21.1.21.1.21.1.22.11.21.11.21.11.21.11.21.11.21.11.21.11.21.1.21.1.21.1.21.1.22.09.21.09.22.09.21.09.21.1.21.1.21.1.22.1.21.1.22.11.21.11.21.11.22.1.21.1.22.1.21.1.21.1.21.1.21.09.22.09.21.09.22.09.21.09.21.09.21.1.21.1.21.1.21.1.21.1.21.1.21.1.21.1.21.1.21.1.21.1.21.1.21.09.21.09.21.09.22.09.21.09.21.09.21.09.21.09.21.09.21.09.22.09.21.1.21.1.21.1.21.1.22.1.21.1.22.09.21.09.21.09.21.09.21.09.22.09.21.09.21.09.21.08.21.09.21.09.21.09.21.09.21.09.21.09.21.09.21.1.21.1.21.1.21.1.21.09.21.09.21.09.21.09.21.08.21.08.21.08.21.08.21.08.21.08.21.08.21.08.21.09.21.09.21.09.21.09.21.09.22.09.21.09.21.09.21.09.21.08.21.08.21.08.22.08.21.08.21.08.21.08.21.08.21.08.21.08.21.08.21.09.21.09.21.09.21.1.21.1.21.1.21.09.21.09.21.08.21.08.21.07.21.07.21.06.21.06.21.06.21.06.21.06.21.06.21.07.21.07.21.08.21.09.21.09.21.1.21.1.21.1.21.11.21.1.21.1.21.1.21.09.22.08.21.08.21.07.21.06.21.05.21.05.21.04.21.04.21.03.21.03.21.03.21.03.21.04.21.05.21.06.21.07.22.08.21.09.21.11.21.12.21.12.21.13.21.13.21.14.21.13.21.13.21.12.21.11.21.1.21.09.21.08.21.06.21.05.21.04.21.03.21.02h.21s.21.01.21.01h.21s.21,0,.21,0h.21s.21,0,.21,0h.21s.21,0,.21,0h.21s.21.02.21.02l.21.02.22.03.21.04.21.05.21.06.21.07.21.08.21.1.21.1.21.11.21.12.21.13.22.13.21.14.21.14.21.15.21.14.21.14.21.14.21.14.21.13.21.13.21.12.21.11.21.1.21.09.21.08.21.07.21.06.21.05.21.04.22.04.21.02.22.02h.21s.21,0,.21,0h.21s.22-.02.22-.02l.21-.02.21-.02.21-.02.21-.03.21-.03.21-.03.21-.03.21-.03.21-.03.22-.03.21-.02.22-.02.21-.02h.21s.21-.01.21-.01h.21s.21.01.21.01l.21.02.21.02.21.03.21.04.21.05.21.05.22.06.21.07.22.08.21.08.22.09.21.1.21.1.21.11.21.12.21.12.21.13.21.13.21.13.21.14.21.14.21.14.22.14.21.14.22.14.21.14.22.14.21.14.21.14.21.14.21.13.21.13.21.13.21.12.21.12.21.11.21.11.21.1.22.1.21.09.22.09.21.08.21.08.21.07.21.07.21.06.21.05.22.05.21.04.21.03.21.03.21.02.21.02h.21s.22.01.22.01h.21s.21-.01.21-.01h.21s.21-.03.21-.03l.22-.02.21-.03.21-.03.21-.03.21-.04.21-.04.21-.04.21-.04.21-.05.21-.05.21-.05.21-.05.21-.05.21-.06.21-.06.21-.06.21-.06.21-.06.21-.06.21-.06.21-.06.21-.06.21-.06.21-.06.21-.05.21-.05.21-.05.21-.05.21-.04.21-.04.21-.04.21-.03.21-.03.21-.03.21-.03.21-.02.21-.02.21-.02.21-.02.21-.02.21-.02h.21s.21-.03.21-.03h.21s.21-.01.21-.01h.21s.21,0,.21,0h.21s.21.03.21.03l.21.02.21.03.21.04.21.04.21.05.21.06.21.06.21.06.21.07.21.07.21.07.21.07.21.07.21.07.21.07.21.07.21.07.21.07.21.07.21.07.21.08.21.08.21.08.21.09.21.09.22.1.21.1.22.11.21.12.21.12.21.13.21.13.21.14.21.14.21.14.21.15.21.14.21.14.21.14.21.14.21.14.22.13.21.13.22.12.21.12.21.12.21.11.21.11.21.11.21.1.21.11.21.11.21.11.21.11.21.11.22.11.21.11.22.12.21.12.21.12.21.12.21.12.21.13.21.13.21.13.21.13.21.13.21.13.21.13.21.13.21.13.21.13.21.13.22.13.21.13.21.12.21.12.21.12.21.12.21.11.21.11.21.1.21.1.21.09.21.08.21.08.21.07.21.06.21.06.22.05.21.04.21.04.21.03.21.03.21.03.21.03.21.02.21.03.21.03.21.03.21.03.21.03.21.04.21.04.21.04.22.05.21.05.21.05.21.05.21.05.22.05.21.05.21.05.21.05.21.05.21.04.21.04.21.04.21.03.21.03.21.02h.21s.22.02.22.02h.21s.21,0,.21,0h.21s.21-.03.21-.03l.21-.02.21-.03.21-.03.21-.04.21-.04.21-.05.21-.05.21-.05.21-.06.21-.06.21-.06.21-.06.21-.07.21-.07.21-.07.21-.07.21-.07.21-.07.21-.08.21-.08.21-.08.21-.08.21-.08.21-.08.21-.08.21-.08.21-.08.21-.08.21-.07.21-.07.21-.07.21-.07.21-.07.21-.07.21-.06.21-.06.21-.06.21-.06.21-.06.22-.06.21-.05.21-.05.21-.05.21-.05.21-.05.21-.05.21-.04.21-.04.21-.04.21-.04.21-.04.21-.05.21-.05.21-.05.21-.05.22-.06.21-.06.21-.07.21-.07.21-.08.21-.08.21-.09.21-.09.21-.1.21-.11.21-.11.21-.12.21-.12.21-.12.22-.13.21-.13.22-.13.21-.13.22-.13.21-.13.21-.13.21-.13.21-.13.21-.13.21-.13.21-.13.21-.13.21-.13.21-.12.21-.12.22-.12.21-.12.22-.12.21-.12.22-.12.21-.12.21-.12.21-.12.21-.12.21-.12.21-.12.21-.12.21-.12.21-.12.22-.12.21-.12.22-.12.21-.12.21-.12.21-.12.21-.12.21-.12.21-.13.21-.13.21-.13.21-.13.21-.13.21-.13.21-.14.21-.14.21-.14.21-.14.22-.14.21-.14.21-.13.21-.13.21-.13.21-.13.21-.12.21-.12.21-.12.21-.11.21-.11.21-.1.21-.1.21-.1.21-.09.21-.09.22-.09.21-.08.21-.08.21-.07.21-.07.21-.07.21-.07.21-.07.21-.07.22-.07.21-.07.21-.07.21-.07.21-.07.21-.07.21-.07.22-.07.21-.07.21-.07.21-.07.21-.07.22-.08.21-.08.21-.08.21-.08.21-.08.21-.08.21-.08.21-.09.21-.09.21-.09.21-.09.21-.09.22-.09.21-.1.21-.1.21-.1.21-.1.21-.11.21-.11.21-.11.21-.11.21-.11.21-.12.21-.12.21-.12.21-.13.21-.13.21-.14.21-.14.21-.14.21-.15.21-.15.21-.15.21-.16.21-.16.21-.16.21-.16.21-.17.21-.17.21-.17.21-.17.21-.17.22-.17.21-.16.21-.16.21-.16.21-.16.21-.16.21-.15.21-.15.21-.15.22-.15.21-.15.22-.14.21-.14.22-.14.21-.13.21-.13.22-.12.21-.12.22-.12.21-.11.21-.1.21-.1.21-.09.22-.09.21-.08.22-.07.21-.06.21-.06.21-.05.21-.04.22-.03.4-.03h.13s.11-.04.11-.04l.21-.05.21-.06.21-.06.21-.05.21-.04.21-.03.21-.02h.21s.21-.01.21-.01h.22s.21,0,.21,0h.21s.22,0,.22,0h.21s.22-.01.22-.01h.21s.22-.03.22-.03l.21-.02.21-.03.21-.03.21-.03.21-.03.21-.03.22-.03.21-.03.21-.03.22-.02.21-.02.21-.02.21-.03.21-.03.21-.03.22-.03.21-.04.21-.04.22-.04.21-.05.22-.05.21-.05.21-.05.21-.05.21-.05.21-.05.21-.05.22-.05.21-.04.22-.04.21-.04.21-.04.22-.04.21-.04.21-.04.21-.05.21-.05.21-.05.21-.05.22-.06.21-.06.22-.06.21-.06.21-.06.21-.06.21-.06.21-.06.21-.06.21-.06.21-.06.22-.07.21-.06.22-.07.21-.07.21-.07.21-.07.21-.07.21-.07.21-.07.22-.07.21-.07.21-.07.22-.07.21-.07.21-.06.21-.06.21-.06.21-.06.21-.05.21-.05.21-.05.22-.05.21-.05.22-.05.21-.05.21-.05.21-.05.21-.05.21-.05.21-.05.22-.05.21-.06.22-.05.21-.06.21-.05.22-.05.21-.05.21-.05.21-.05.21-.05.21-.05.21-.05.22-.05.21-.05.22-.05.21-.05.21-.05.21-.05.21-.05.21-.05.21-.05.21-.05.21-.04.22-.04.21-.04.21-.04.22-.03.21-.03.21-.03.21-.03.21-.03.21-.03.21-.03.21-.03.21-.03.22-.03.21-.03.21-.03.21-.03.21-.03.21-.03.21-.03.21-.03.21-.03.22-.03.21-.03.22-.03.21-.03.21-.02.21-.02.21-.02.21-.02.21-.02.22-.02.21-.02.21-.02.22-.03.21-.03.21-.03.21-.03.21-.03.21-.04.21-.04.21-.04.21-.04.22-.05.21-.05.22-.05.21-.06.21-.06.21-.06.21-.07.21-.07.21-.07.21-.08.21-.08.22-.08.21-.09.21-.09.22-.09.21-.09.21-.09.21-.09.21-.09.21-.09.21-.09.21-.09.21-.09.22-.1.21-.1.21-.1.21-.1.21-.1.21-.1.21-.11.21-.11.21-.11.22-.11.21-.11.21-.12.22-.12.21-.12.21-.12.21-.12.21-.12.21-.12.22-.12.21-.12.21-.12.22-.12.21-.13.22-.13.21-.13.21-.13.21-.13.21-.13.21-.14.21-.14.22-.14.21-.14.22-.14.21-.14.21-.13.21-.13.21-.13.21-.13.21-.12.22-.12.21-.12.21-.12.22-.11.21-.11.22-.11.21-.11.21-.11.21-.11.21-.11.21-.1.21-.1.21-.1.21-.1.22-.09.21-.09.22-.09.21-.08.21-.08.21-.08.21-.07.21-.07.21-.07.22-.07.21-.07.21-.07.22-.07.21-.07.21-.08.21-.08.21-.08.21-.08.21-.08.21-.08.21-.07.22-.07.21-.06.21-.06.21-.05.21-.04.21-.04.21-.03.21-.02.21-.02.22-.02h.21s.22-.03.22-.03h.21s.21-.03.21-.03h.21s.21-.03.21-.03l.21-.02.21-.02.21-.02h.21s.21-.02.21-.02h.22s.21,0,.21,0h.22s.21.02.21.02l.21.02.21.03.21.04.21.04.21.05.21.05.21.05.22.05.21.05.21.04.21.04.21.03.21.02.21.02h.21s.21.02.21.02h.43s.21,0,.21,0h.22s.21,0,.21,0h.21s.21,0,.21,0h.21s.21.02.21.02l.21.02.21.03.21.03.22.04.21.04.21.04.21.04.21.04.21.04.21.04.21.03.21.03.22.02h.21s.21.02.21.02h.22s.21,0,.21,0h.21s.21-.03.21-.03l.21-.02.21-.03.21-.03.21-.04.21-.04.22-.04.21-.05.22-.05.21-.05.21-.05.21-.05.21-.04.21-.04.21-.04.21-.03.21-.02.22-.02h.21s.21-.02.21-.02h.22s.21.01.21.01h.21s.21.04.21.04l.21.03.21.03.22.04.21.04.21.04.22.04.21.05.21.04.21.05.21.05.21.05.21.05.21.05.21.05.22.05.21.05.22.05.21.05.21.05.21.05.21.04.21.04.21.04.22.04.21.04.21.03.22.03.21.03.22.03.21.02.21.02.21.02h.21s.21.03.21.03h.21s.22.02.22.02h.21s.22,0,.22,0h.21s.21,0,.21,0h.21s.21-.02.21-.02l.21-.02.21-.02.21-.02.21-.03.22-.03.21-.04.21-.04.22-.04.21-.05.21-.05.21-.05.21-.06.21-.06.21-.06.21-.06.21-.06.22-.06.21-.07.22-.07.21-.07.21-.07.21-.07.21-.07.21-.07.21-.07.22-.07.21-.08.21-.08.22-.08.21-.08.21-.08.21-.08.21-.08.21-.08.22-.08.21-.08.21-.08.22-.08.21-.08.22-.08.21-.08.21-.08.21-.08.21-.08.21-.08.21-.08.22-.08.21-.08.22-.08.21-.08.21-.08.22-.08.21-.08.21-.08.21-.08.21-.08.21-.08.21-.08.22-.08.21-.08.22-.08.21-.08.21-.08.21-.08.21-.08.21-.08.21-.08.21-.09.21-.09.22-.09.21-.09.21-.09.21-.09.21-.09.21-.09.21-.09.21-.1.21-.1.22-.1.21-.1.21-.1.22-.1.21-.11.21-.11.21-.11.21-.11.21-.11.21-.12.21-.12.21-.12.22-.12.21-.12.22-.12.21-.12.21-.12.21-.12.21-.12.21-.13.21-.13.22-.13.21-.13.22-.13.21-.13.21-.14.22-.14.21-.14.21-.14.21-.14.21-.14.21-.15.21-.15.22-.15.21-.15.22-.15.21-.15.21-.15.21-.15.21-.16.21-.16.21-.16.21-.16.21-.16.22-.16.21-.16.21-.17.21-.17.21-.17.21-.17.21-.17.21-.17.21-.17.22-.17.21-.17.21-.16.22-.17.21-.16.21-.16.21-.16.21-.17.21-.17.21-.17.22-.17.21-.17.22-.17.21-.17.22-.17.21-.17.21-.17.21-.17.21-.16.21-.16.21-.16.22-.16.21-.16.21-.15.22-.15.21-.15.21-.15.21-.15.21-.15.21-.15.22-.15.21-.15.21-.15.22-.15.21-.15.21-.15.21-.14.21-.14.21-.14.21-.13.21-.13.21-.12.21-.12.21-.11.22-.11.21-.11.21-.1.21-.1.21-.1.21-.1.21-.1.21-.1.21-.11.21-.11.21-.11.21-.11.22-.12.21-.12.21-.12.21-.12.21-.12.21-.11.21-.11.21-.11.21-.11.22-.1.21-.1.21-.09.21-.09.21-.09.21-.09.21-.09.21-.09.21-.09.22-.09.21-.09M-463.02-73.19h.01s.01.03.01.03l.03.02.05.05.05.05.05.05.22.21.21.21.22.21.11.1.11.1.21.2.21.2.21.19,1.5,1.35.21.21.21.22.21.23.21.23.21.23.21.22.22.22.21.21.21.21.21.2.21.19.21.18.21.18.22.18.21.18.21.18.21.19.21.19.22.2.21.2.22.21.21.22.21.22.21.22.21.22.22.22.21.21.22.2.21.2.21.19.22.18.21.18.21.18.21.18.21.18.21.18.21.19.21.2.21.21.21.22.21.22.21.23.21.23.21.23.21.22.21.22.21.21.21.2.21.2.21.19.21.18.21.18.21.18.21.18.21.18.21.19.21.2.22.21.21.22.21.22.21.23.21.23.21.23.21.23.22.22.21.22.21.21.21.2.21.19.22.18.21.17.21.17.21.17.21.17.21.18.21.19.22.2.21.21.21.22.21.23.21.23.21.24.21.24.21.23.21.23.21.21.21.2.21.19.21.17.21.16.21.15.21.15.21.15.21.16.21.17.21.18.21.2.21.21.21.23.22.25.21.26.21.26.21.26.22.26.21.25.21.23.22.21.21.18.22.16.21.13.21.11.21.1.21.09.21.1.21.11.22.13.21.15.21.19.21.22.21.26.22.3.21.33.21.36.21.37.21.38.21.37.21.36.22.33.21.29.21.24.21.19.21.13.21.07.21.02.21-.02.21-.06.21-.09.21-.1.22-.09.21-.08.22-.05h.21s.21.05.21.05l.21.11.21.17.22.24.21.3.22.36.21.42.21.46.22.5.21.53.22.54.21.55.21.54.21.53.21.51.22.48.21.45.22.41.21.38.21.34.21.3.21.26.21.23.21.2.21.16.21.13.21.1.21.08.21.05.21.02h.21s.21-.03.21-.03l.21-.05.21-.07.21-.08.22-.1.21-.11.21-.12.21-.12.21-.13.21-.12.21-.12.22-.11.21-.1.21-.09.21-.07.21-.05.22-.04.21-.02h.22s.21.02.21.02l.21.04.21.06.21.07.22.09.21.11.21.13.21.15.21.17.21.19.21.21.21.23.21.25.21.27.21.29.21.31.21.33.21.35.21.36.21.38.21.4.21.41.21.42.21.43.21.44.21.45.21.46.21.46.21.47.21.47.21.48.21.48.21.48.21.49.21.5.21.5.22.51.21.51.21.52.21.52.21.52.21.52.21.52.22.52.21.52.21.51.21.51.21.5.21.49.21.49.21.48.21.47.21.46.21.46.21.45.21.44.21.44.21.44.21.43.21.43.21.43.21.43.21.42.21.42.21.41.21.4.21.39.21.38.21.37.21.36.21.35.21.34.21.33.21.32.21.31.21.3.21.29.21.29.21.28.21.28.21.27.21.27.22.26.21.25.21.25.21.24.21.23.21.22.21.21.21.2.21.19.21.18.21.16.21.15.21.15.21.14.21.13.21.12.22.12.21.12.21.11.21.11.21.11.21.11.21.11.21.1.21.1.21.09.21.09.21.08.21.07.21.06.21.05.21.04.21.03.21.02h.21s.21.02.21.02h.21s.21,0,.21,0h.21s.21,0,.21,0h.21s.21,0,.21,0h.21s.21,0,.21,0h.21s.21,0,.21,0h.43s.21-.02.21-.02l.21-.02.21-.03.21-.04.21-.06.21-.07.21-.08.21-.09.21-.1.21-.11.22-.11.21-.11.21-.11.21-.1.21-.09.21-.08.21-.07.21-.06.21-.05.21-.04.21-.03.21-.03.21-.03.21-.03.21-.04.21-.06.21-.07.21-.09.21-.12.22-.14.21-.16.22-.18.21-.2.21-.21.21-.22.22-.22.21-.22.21-.21.21-.19.21-.18.21-.15.21-.13.21-.11.21-.08.21-.06.22-.04.21-.03.22-.02.21-.02.21-.02.21-.03.21-.04.21-.06.21-.08.21-.1.21-.12.21-.14.21-.16.21-.18.22-.19.21-.2.22-.21.21-.21.22-.21.21-.21.21-.2.21-.2.21-.19.21-.18.21-.18.21-.17.21-.17.21-.17.21-.17.21-.17.22-.17.21-.16.22-.16.21-.16.22-.16.21-.15.21-.14.21-.13.21-.12.21-.1.21-.09.21-.07.21-.05.21-.04.21-.02h.21s.22-.02.22-.02h.21s.22,0,.22,0h.21s.21-.03.21-.03l.21-.03.21-.05.21-.07.21-.09.22-.11.21-.13.21-.16.21-.18.21-.2.21-.21.21-.23.22-.24.21-.25.21-.25.21-.25.21-.25.22-.24.21-.24.21-.23.21-.22.21-.21.21-.2.21-.19.21-.18.21-.17.21-.16.21-.15.21-.14.21-.14.21-.13.21-.13.21-.12.21-.12.21-.11.21-.11.21-.1.21-.1.21-.1.21-.09.21-.09.21-.08.21-.08.21-.07.21-.07.21-.07.21-.06.21-.05.21-.05.21-.04.21-.04.21-.03.21-.03.21-.02.21-.02.21-.02h.21s.21-.03.21-.03h.21s.21-.03.21-.03l.21-.02.21-.03.21-.04.21-.04.21-.05.21-.06.21-.07.21-.08.21-.09.21-.1.21-.11.21-.12.21-.13.21-.14.21-.15.21-.15.21-.16.21-.16.21-.16.21-.16.21-.16.21-.16.21-.16.21-.15.21-.15.21-.14.21-.13.21-.13.21-.12.21-.11.21-.1.22-.1.21-.09.22-.09.21-.08.21-.08.21-.08.21-.08.21-.09.21-.09.21-.1.21-.1.21-.11.21-.12.21-.13.21-.14.21-.15.22-.15.21-.16.22-.17.21-.17.21-.18.21-.18.21-.18.21-.18.21-.18.21-.18.21-.17.21-.17.21-.17.21-.17.22-.16.21-.16.22-.15.21-.15.21-.15.21-.14.21-.14.21-.13.21-.12.21-.11.21-.11.21-.1.21-.08.21-.07.21-.06.21-.05.21-.04.21-.02h.22s.21,0,.21,0l.21.02.21.03.21.04.21.05.21.05.21.06.21.07.21.07.21.07.21.08.21.08.21.08.21.08.21.08.22.08.21.07.21.07.21.07.21.07.21.07.21.06.21.06.21.06.21.06.21.06.21.06.21.06.21.05.21.05.21.05.22.05.21.04.21.04.21.04.21.03.22.03.21.02h.21s.21.02.21.02h.21s.21-.01.21-.01l.21-.02.21-.03.21-.04.21-.05.21-.06.21-.07.22-.08.21-.09.21-.1.21-.11.21-.12.21-.12.21-.13.21-.14.21-.14.21-.15.21-.15.21-.16.21-.16.21-.16.21-.17.21-.17.21-.17.21-.17.21-.17.21-.17.21-.16.21-.16.21-.16.21-.16.21-.15.21-.15.21-.14.21-.14.21-.14.21-.13.21-.13.21-.13.21-.12.21-.12.21-.12.21-.12.21-.12.21-.11.21-.11.21-.11.21-.11.21-.11.21-.1.21-.1.22-.1.21-.09.21-.08.21-.08.21-.07.21-.07.21-.06.21-.06.21-.05.21-.04.21-.04.21-.03.21-.03.21-.03.21-.03.21-.02.22-.02.21-.02.21-.03.21-.03.21-.03.21-.03.21-.04.21-.04.21-.04.21-.05.21-.05.21-.06.21-.06.21-.06.22-.06.21-.07.22-.07.21-.07.22-.07.21-.07.21-.07.21-.06.21-.06.21-.06.21-.06.21-.06.21-.06.21-.06.21-.06.21-.05.22-.05.21-.05.22-.06.21-.06.22-.06.21-.06.21-.06.21-.06.21-.06.21-.06.21-.07.21-.07.21-.07.21-.07.22-.08.21-.08.22-.08.21-.08.21-.08.21-.09.21-.09.21-.09.21-.09.21-.1.21-.1.21-.1.21-.11.21-.11.21-.11.21-.12.21-.12.21-.12.22-.12.21-.13.21-.13.21-.13.21-.13.21-.12.21-.12.21-.12.21-.12.21-.12.21-.12.21-.12.21-.11.21-.11.21-.12.21-.11.22-.11.21-.12.21-.12.21-.12.21-.12.21-.13.21-.13.21-.13.21-.13.22-.14.21-.14.21-.14.21-.14.21-.14.21-.14.21-.15.22-.14.21-.14.21-.14.21-.14.21-.14.22-.14.21-.13.21-.13.21-.13.21-.12.21-.12.21-.11.21-.11.21-.1.21-.1.21-.09.21-.09.22-.08.21-.08.21-.07.21-.06.21-.06.21-.06.21-.05.21-.05.21-.04.21-.04.21-.04.21-.03.21-.03.21-.03.21-.02.21-.02.21-.02.21-.02.21-.02h.21s.21-.03.21-.03h.21s.21-.02.21-.02h.21s.21,0,.21,0h.21s.21,0,.21,0h.21s.21,0,.21,0h.21s.22.02.22.02h.21s.21.02.21.02l.21.02.21.02.21.02.21.02.21.02.21.02.22.02.21.02.22.02.21.02.22.02.21.02.21.02.22.02.21.02.22.02h.21s.21.03.21.03l.21.02.21.02.22.02.21.02.22.02.21.03.21.03.21.03.21.04.22.04.4.09.13.03.11.03.21.06.21.06.21.06.21.06.21.06.21.06.21.06.21.06.21.05.22.05.21.05.21.05.22.04.21.04.22.04.21.03.22.03.21.03.21.03.21.02.21.02.21.02h.21s.22.02.22.02h.21s.21.02.21.02h.22s.21.02.21.02h.21s.21.02.21.02h.21s.21.02.21.02h.22s.21.03.21.03h.21s.22.03.22.03h.21s.22.02.22.02h.21s.21,0,.21,0h.21s.21,0,.21,0h.21s.21-.01.21-.01h.22s.21-.02.21-.02h.22s.21-.02.21-.02h.21s.22-.02.22-.02h.21s.21-.02.21-.02h.21s.21-.02.21-.02h.21s.21-.03.21-.03l.22-.02.21-.02.22-.02.21-.03.21-.03.21-.04.21-.04.21-.04.21-.05.21-.05.21-.05.22-.05.21-.05.22-.05.21-.05.21-.05.21-.05.21-.05.21-.05.21-.04.22-.05.21-.04.21-.05.22-.05.21-.05.21-.05.21-.05.21-.04.21-.04.21-.04.21-.04.21-.03.22-.03.21-.03.22-.02.21-.02.21-.02.21-.02h.21s.21-.03.21-.03l.21-.02.22-.02.21-.02.22-.03.21-.03.21-.04.22-.04.21-.04.21-.05.21-.05.21-.05.21-.05.21-.05.22-.05.21-.05.22-.05.21-.04.21-.04.21-.04.21-.04.21-.05.21-.05.21-.06.21-.07.22-.08.21-.08.21-.09.22-.1.21-.11.21-.11.21-.12.21-.12.21-.12.21-.12.21-.12.21-.11.22-.11.21-.11.21-.1.21-.1.21-.1.21-.1.21-.11.21-.12.21-.12.22-.13.21-.14.22-.15.21-.17.21-.18.21-.19.21-.2.21-.21.21-.21.22-.22.21-.22.21-.21.22-.21.21-.2.21-.19.21-.18.21-.17.21-.16.21-.15.21-.14.21-.13.22-.12.21-.12.22-.11.21-.11.21-.1.21-.1.21-.1.21-.1.21-.1.21-.1.21-.1.22-.1.21-.1.21-.1.22-.1.21-.11.21-.11.21-.11.21-.11.21-.11.21-.12.21-.12.21-.12.22-.12.21-.13.21-.13.21-.13.21-.13.21-.13.21-.13.21-.13.21-.13.22-.13.21-.13.21-.13.22-.13.21-.13.21-.13.21-.13.21-.13.21-.13.22-.13.21-.14.21-.14.22-.14.21-.15.22-.15.21-.15.21-.16.21-.16.21-.16.21-.16.21-.16.22-.16.21-.16.22-.16.21-.16.21-.16.21-.16.21-.16.21-.16.21-.17.22-.17.21-.17.21-.17.22-.17.21-.17.22-.17.21-.17.21-.17.21-.17.21-.17.21-.16.21-.16.21-.16.21-.16.22-.16.21-.16.22-.15.21-.15.21-.15.21-.15.21-.15.21-.15.21-.15.22-.15.21-.15.21-.15.22-.15.21-.15.21-.15.21-.14.21-.14.21-.14.21-.14.21-.13.21-.13.22-.13.21-.13.21-.13.21-.12.21-.12.21-.12.21-.12.21-.12.21-.11.22-.11.21-.11.22-.11.21-.11.21-.11.21-.1.21-.1.21-.1.21-.1.21-.1.21-.1.21-.09.22-.09.21-.09.22-.09.21-.09.21-.09.21-.09.21-.09.21-.09.21-.09.21-.08.21-.08.22-.08.21-.08.21-.08.21-.08.21-.08.21-.07.21-.07.21-.07.21-.07.22-.07.21-.07.21-.07.22-.07.21-.07.21-.07.21-.07.21-.07.21-.07.21-.06.21-.07.21-.06.22-.06.21-.06.21-.06.21-.06.21-.06.21-.06.21-.06.21-.06.21-.06.22-.06.21-.07.21-.07.22-.07.21-.07.21-.07.21-.07.21-.07.21-.07.21-.07.21-.07.21-.07.22-.07.21-.07.22-.07.21-.07.21-.07.21-.07.21-.07.21-.07.21-.07.21-.07.21-.07.22-.08.21-.08.21-.08.22-.08.21-.08.21-.08.21-.08.21-.08.21-.08.22-.08.21-.08.21-.08.22-.08.21-.08.21-.08.21-.08.21-.08.21-.08.21-.08.21-.08.21-.08.22-.08.21-.08.22-.08.21-.07.21-.07.21-.07.21-.07.21-.07.21-.07.22-.06.21-.06.21-.06.22-.06.21-.06.22-.06.21-.06.21-.06.21-.06.21-.06.21-.06.21-.06.22-.06.21-.06.22-.05.21-.05.21-.05.21-.05.21-.05.21-.05.21-.05.21-.04.21-.04.22-.04.21-.04.21-.04.22-.04.21-.05.21-.05.21-.05.21-.05.21-.05.21-.05.21-.05.21-.05.22-.05.21-.05.22-.04.21-.04.21-.03.21-.02.21-.02h.21s.21-.02.21-.02h.22s.21,0,.21,0h.64s.21,0,.21,0h.21s.21-.01.21-.01h.21s.22-.02.22-.02h.21s.21-.03.21-.03l.22-.02.21-.02.22-.02.21-.02h.21s.21-.02.21-.02h.21s.21,0,.21,0h.21s.22,0,.22,0h.21s.22,0,.22,0h.21s.21,0,.21,0h.22s.21-.01.21-.01h.21s.21-.03.21-.03l.21-.03.21-.03.21-.04.22-.05.21-.05.22-.05.21-.05.21-.05.21-.05.21-.05.21-.05.21-.04.21-.04.21-.03.22-.03.21-.02.21-.02.21-.02.21-.02.21-.02.21-.02.21-.02.21-.02.22-.02.21-.03.21-.03.22-.04.21-.05.21-.05.21-.06.21-.07.21-.07.21-.08.21-.08.21-.09.22-.09.21-.1.22-.1.21-.1.21-.1.21-.1.21-.1.21-.1.21-.1.22-.1.21-.1.22-.1.21-.1.21-.09.22-.09.21-.09.21-.09.21-.09.21-.09.21-.09.21-.09.22-.09.21-.1.22-.1.21-.11.21-.11.21-.12.21-.12.21-.13.21-.13.21-.14.21-.14.22-.15.21-.15.21-.16.21-.16.21-.16.21-.16.21-.16.21-.16.21-.16.22-.16.21-.16.21-.16.22-.16.21-.15.21-.15.21-.14.21-.14.21-.14.21-.13.22-.13.21-.12.22-.11.21-.11.22-.1.21-.1.21-.09.21-.09.21-.08.21-.07.21-.07.22-.07.21-.06.21-.06.22-.05.21-.05.21-.05.21-.05.21-.04.21-.04.22-.04.21-.04.21-.04.22-.03.21-.03.21-.03.21-.03.21-.03.21-.03.21-.03.21-.03.21-.03.21-.03.21-.03.22-.03.21-.03.21-.03.21-.03.21-.03.21-.04.21-.04.21-.04.21-.04.21-.04.21-.05.21-.05.22-.05.21-.05.21-.05.21-.05.21-.05.21-.06.21-.06.21-.06.21-.06.22-.06.21-.06.21-.06.21-.06.21-.06.21-.06.21-.06.21-.06.21-.06.22-.06.21-.06"/>
    <polyline id="CM-KM" class="st3" points="-463.02 -6.04 -463.01 -6.03 -462.99 -6.02 -462.97 -5.99 -462.91 -5.94 -462.86 -5.89 -462.81 -5.84 -462.59 -5.64 -462.38 -5.44 -462.16 -5.24 -462.06 -5.13 -461.95 -5.03 -461.73 -4.83 -461.52 -4.63 -461.31 -4.43 -459.8 -3.02 -459.59 -2.82 -459.38 -2.61 -459.16 -2.41 -458.95 -2.21 -458.73 -2.01 -458.52 -1.81 -458.3 -1.61 -458.09 -1.41 -457.87 -1.21 -457.66 -1.01 -457.45 -.82 -457.23 -.62 -457.02 -.42 -456.8 -.22 -456.59 -.02 -456.37 .18 -456.16 .38 -455.94 .57 -455.73 .77 -455.52 .97 -455.3 1.16 -455.09 1.36 -454.87 1.56 -454.66 1.75 -454.44 1.95 -454.23 2.15 -454.01 2.34 -453.8 2.54 -453.59 2.73 -453.37 2.93 -453.16 3.12 -452.94 3.32 -452.73 3.51 -452.51 3.7 -452.3 3.9 -452.08 4.09 -451.87 4.28 -451.66 4.48 -451.44 4.67 -451.23 4.86 -451.01 5.05 -450.8 5.24 -450.58 5.43 -450.37 5.62 -450.15 5.82 -449.94 6.01 -449.73 6.2 -449.51 6.39 -449.3 6.57 -449.08 6.76 -448.87 6.95 -448.65 7.14 -448.44 7.33 -448.22 7.52 -448.01 7.7 -447.8 7.89 -447.58 8.08 -447.37 8.26 -447.15 8.45 -446.94 8.63 -446.72 8.82 -446.51 9 -446.29 9.19 -446.08 9.37 -445.87 9.56 -445.65 9.74 -445.44 9.92 -445.22 10.11 -445.01 10.29 -444.79 10.47 -444.58 10.65 -444.36 10.83 -444.15 11.01 -443.94 11.19 -443.72 11.37 -443.51 11.55 -443.29 11.73 -443.08 11.91 -442.86 12.09 -442.65 12.27 -442.43 12.44 -442.22 12.62 -442.01 12.8 -441.79 12.97 -441.58 13.15 -441.36 13.33 -441.15 13.5 -440.93 13.68 -440.72 13.85 -440.51 14.02 -440.29 14.2 -440.08 14.37 -439.86 14.54 -439.65 14.72 -439.43 14.89 -439.22 15.06 -439 15.23 -438.79 15.4 -438.58 15.57 -438.36 15.74 -438.15 15.91 -437.93 16.08 -437.72 16.25 -437.5 16.41 -437.29 16.58 -437.07 16.75 -436.86 16.92 -436.65 17.08 -436.43 17.25 -436.22 17.41 -436 17.58 -435.79 17.74 -435.57 17.91 -435.36 18.07 -435.14 18.23 -434.93 18.4 -434.72 18.56 -434.5 18.72 -434.29 18.88 -434.07 19.04 -433.86 19.2 -433.64 19.36 -433.43 19.52 -433.21 19.68 -433 19.84 -432.79 20 -432.57 20.15 -432.36 20.31 -432.14 20.47 -431.93 20.62 -431.71 20.78 -431.5 20.93 -431.28 21.09 -431.07 21.24 -430.86 21.4 -430.64 21.55 -430.43 21.7 -430.21 21.86 -430 22.01 -429.78 22.16 -429.57 22.31 -429.35 22.46 -429.14 22.61 -428.93 22.76 -428.71 22.91 -428.5 23.06 -428.28 23.21 -428.07 23.35 -427.85 23.5 -427.64 23.65 -427.42 23.79 -427.21 23.94 -427 24.08 -426.78 24.23 -426.57 24.37 -426.35 24.51 -426.14 24.66 -425.92 24.8 -425.71 24.94 -425.49 25.09 -425.28 25.23 -425.07 25.37 -424.85 25.51 -424.64 25.65 -424.42 25.79 -424.21 25.93 -423.99 26.06 -423.78 26.2 -423.56 26.34 -423.35 26.48 -423.14 26.61 -422.92 26.75 -422.71 26.88 -422.49 27.02 -422.28 27.15 -422.06 27.28 -421.85 27.42 -421.63 27.55 -421.42 27.68 -421.21 27.81 -420.99 27.95 -420.78 28.08 -420.56 28.21 -420.35 28.34 -420.13 28.47 -419.92 28.59 -419.71 28.72 -419.49 28.85 -419.28 28.98 -419.06 29.1 -418.85 29.23 -418.63 29.36 -418.42 29.48 -418.2 29.61 -417.99 29.73 -417.78 29.85 -417.56 29.98 -417.35 30.1 -417.13 30.22 -416.92 30.34 -416.7 30.47 -416.49 30.59 -416.27 30.71 -416.06 30.83 -415.85 30.94 -415.63 31.06 -415.42 31.18 -415.2 31.3 -414.99 31.42 -414.77 31.53 -414.56 31.65 -414.34 31.76 -414.13 31.88 -413.92 31.99 -413.7 32.11 -413.49 32.22 -413.27 32.34 -413.06 32.45 -412.84 32.56 -412.63 32.67 -412.41 32.78 -412.2 32.89 -411.99 33 -411.77 33.11 -411.56 33.22 -411.34 33.33 -411.13 33.44 -410.91 33.54 -410.7 33.65 -410.48 33.76 -410.27 33.86 -410.06 33.97 -409.84 34.07 -409.63 34.18 -409.41 34.28 -409.2 34.39 -408.98 34.49 -408.77 34.59 -408.55 34.7 -408.34 34.8 -408.13 34.9 -407.91 35 -407.7 35.1 -407.48 35.2 -407.27 35.3 -407.05 35.39 -406.84 35.49 -406.62 35.59 -406.41 35.68 -406.2 35.78 -405.98 35.88 -405.77 35.97 -405.55 36.07 -405.34 36.16 -405.12 36.26 -404.91 36.35 -404.69 36.44 -404.48 36.54 -404.27 36.63 -404.05 36.72 -403.84 36.81 -403.62 36.9 -403.41 36.99 -403.19 37.08 -402.98 37.17 -402.76 37.26 -402.55 37.35 -402.34 37.44 -402.12 37.52 -401.91 37.61 -401.69 37.7 -401.48 37.78 -401.26 37.87 -401.05 37.95 -400.83 38.03 -400.62 38.12 -400.41 38.2 -400.19 38.28 -399.98 38.36 -399.76 38.44 -399.55 38.52 -399.33 38.6 -399.12 38.68 -398.91 38.76 -398.69 38.84 -398.48 38.92 -398.26 38.99 -398.05 39.07 -397.83 39.15 -397.62 39.22 -397.4 39.3 -397.19 39.37 -396.98 39.45 -396.76 39.52 -396.55 39.6 -396.33 39.67 -396.12 39.75 -395.9 39.82 -395.69 39.89 -395.47 39.96 -395.26 40.04 -395.05 40.11 -394.83 40.18 -394.62 40.25 -394.4 40.32 -394.19 40.39 -393.97 40.46 -393.76 40.53 -393.54 40.6 -393.33 40.67 -393.12 40.73 -392.9 40.8 -392.69 40.87 -392.47 40.93 -392.26 41 -392.04 41.06 -391.83 41.13 -391.61 41.19 -391.4 41.26 -391.19 41.32 -390.97 41.38 -390.76 41.44 -390.54 41.5 -390.33 41.56 -390.11 41.62 -389.9 41.68 -389.68 41.74 -389.47 41.79 -389.26 41.85 -389.04 41.91 -388.83 41.96 -388.61 42.02 -388.4 42.07 -388.18 42.13 -387.97 42.18 -387.75 42.23 -387.54 42.29 -387.33 42.34 -387.11 42.39 -386.9 42.44 -386.68 42.49 -386.47 42.54 -386.25 42.59 -386.04 42.64 -385.82 42.69 -385.61 42.73 -385.4 42.78 -385.18 42.83 -384.97 42.88 -384.75 42.92 -384.54 42.97 -384.32 43.01 -384.11 43.06 -383.89 43.1 -383.68 43.15 -383.47 43.19 -383.25 43.23 -383.04 43.28 -382.82 43.32 -382.61 43.36 -382.39 43.4 -382.18 43.44 -381.96 43.48 -381.75 43.53 -381.54 43.57 -381.32 43.61 -381.11 43.65 -380.89 43.68 -380.68 43.72 -380.46 43.76 -380.25 43.8 -380.03 43.84 -379.82 43.88 -379.61 43.91 -379.39 43.95 -379.18 43.99 -378.96 44.03 -378.75 44.06 -378.53 44.1 -378.32 44.13 -378.11 44.17 -377.89 44.2 -377.68 44.24 -377.46 44.27 -377.25 44.31 -377.03 44.34 -376.82 44.37 -376.6 44.41 -376.39 44.44 -376.18 44.47 -375.96 44.51 -375.75 44.54 -375.53 44.57 -375.32 44.6 -375.1 44.63 -374.89 44.66 -374.67 44.69 -374.46 44.72 -374.25 44.75 -374.03 44.78 -373.82 44.81 -373.6 44.84 -373.39 44.86 -373.17 44.89 -372.96 44.92 -372.74 44.94 -372.53 44.97 -372.32 45 -372.1 45.02 -371.89 45.04 -371.67 45.07 -371.46 45.09 -371.24 45.11 -371.03 45.14 -370.81 45.16 -370.6 45.18 -370.39 45.2 -370.17 45.22 -369.96 45.24 -369.74 45.26 -369.53 45.27 -369.31 45.29 -369.1 45.31 -368.88 45.33 -368.67 45.34 -368.46 45.36 -368.24 45.37 -368.03 45.39 -367.81 45.4 -367.6 45.41 -367.38 45.43 -367.17 45.44 -366.95 45.45 -366.74 45.46 -366.53 45.47 -366.31 45.48 -366.1 45.49 -365.88 45.5 -365.67 45.5 -365.45 45.51 -365.24 45.52 -365.02 45.52 -364.81 45.53 -364.6 45.53 -364.38 45.54 -364.17 45.54 -363.95 45.54 -363.74 45.54 -363.52 45.55 -363.31 45.55 -363.09 45.55 -362.88 45.55 -362.67 45.55 -362.45 45.55 -362.24 45.54 -362.02 45.54 -361.81 45.54 -361.59 45.53 -361.38 45.53 -361.16 45.53 -360.95 45.52 -360.74 45.51 -360.52 45.51 -360.31 45.5 -360.09 45.49 -359.88 45.48 -359.66 45.48 -359.45 45.47 -359.23 45.46 -359.02 45.45 -358.81 45.43 -358.59 45.42 -358.38 45.41 -358.16 45.4 -357.95 45.39 -357.73 45.37 -357.52 45.36 -357.31 45.34 -357.09 45.33 -356.88 45.31 -356.66 45.3 -356.45 45.28 -356.23 45.26 -356.02 45.25 -355.8 45.23 -355.59 45.21 -355.38 45.19 -355.16 45.17 -354.95 45.15 -354.73 45.14 -354.52 45.11 -354.3 45.09 -354.09 45.07 -353.87 45.05 -353.66 45.03 -353.45 45 -353.23 44.98 -353.02 44.96 -352.8 44.93 -352.59 44.91 -352.37 44.88 -352.16 44.86 -351.94 44.83 -351.73 44.81 -351.52 44.78 -351.3 44.75 -351.09 44.72 -350.87 44.7 -350.66 44.67 -350.44 44.64 -350.23 44.61 -350.01 44.58 -349.8 44.55 -349.59 44.52 -349.37 44.49 -349.16 44.46 -348.94 44.43 -348.73 44.39 -348.51 44.36 -348.3 44.33 -348.08 44.3 -347.87 44.26 -347.66 44.23 -347.44 44.19 -347.23 44.16 -347.01 44.12 -346.8 44.09 -346.58 44.05 -346.37 44.02 -346.15 43.98 -345.94 43.95 -345.73 43.91 -345.51 43.87 -345.3 43.83 -345.08 43.79 -344.87 43.76 -344.65 43.72 -344.44 43.68 -344.22 43.64 -344.01 43.6 -343.8 43.56 -343.58 43.52 -343.37 43.48 -343.15 43.44 -342.94 43.4 -342.72 43.35 -342.51 43.31 -342.29 43.27 -342.08 43.23 -341.87 43.18 -341.65 43.14 -341.44 43.1 -341.22 43.05 -341.01 43.01 -340.79 42.96 -340.58 42.92 -340.36 42.87 -340.15 42.83 -339.94 42.78 -339.72 42.73 -339.51 42.69 -339.29 42.64 -339.08 42.59 -338.86 42.54 -338.65 42.5 -338.43 42.45 -338.22 42.4 -338.01 42.35 -337.79 42.3 -337.58 42.25 -337.36 42.2 -337.15 42.15 -336.93 42.1 -336.72 42.05 -336.51 42 -336.29 41.95 -336.08 41.9 -335.86 41.85 -335.65 41.79 -335.43 41.74 -335.22 41.69 -335 41.64 -334.79 41.59 -334.58 41.53 -334.36 41.48 -334.15 41.43 -333.93 41.37 -333.72 41.32 -333.5 41.27 -333.29 41.21 -333.07 41.16 -332.86 41.1 -332.65 41.05 -332.43 40.99 -332.22 40.94 -332 40.88 -331.79 40.82 -331.57 40.77 -331.36 40.71 -331.14 40.66 -330.93 40.6 -330.72 40.54 -330.5 40.49 -330.29 40.43 -330.07 40.37 -329.86 40.32 -329.64 40.26 -329.43 40.2 -329.21 40.14 -329 40.08 -328.79 40.02 -328.57 39.96 -328.36 39.91 -328.14 39.85 -327.93 39.79 -327.71 39.73 -327.5 39.67 -327.28 39.61 -327.07 39.55 -326.86 39.49 -326.64 39.43 -326.43 39.37 -326.21 39.31 -326 39.24 -325.78 39.18 -325.57 39.12 -325.35 39.06 -325.14 39 -324.93 38.94 -324.71 38.87 -324.5 38.81 -324.28 38.75 -324.07 38.69 -323.85 38.62 -323.64 38.56 -323.42 38.5 -323.21 38.43 -323 38.37 -322.78 38.31 -322.57 38.24 -322.35 38.18 -322.14 38.11 -321.92 38.05 -321.71 37.99 -321.49 37.92 -321.28 37.86 -321.07 37.79 -320.85 37.73 -320.64 37.66 -320.42 37.6 -320.21 37.53 -319.99 37.47 -319.78 37.4 -319.56 37.34 -319.35 37.27 -319.14 37.21 -318.92 37.14 -318.71 37.07 -318.49 37.01 -318.28 36.94 -318.06 36.88 -317.85 36.81 -317.63 36.74 -317.42 36.68 -317.21 36.61 -316.99 36.54 -316.78 36.48 -316.56 36.41 -316.35 36.35 -316.13 36.28 -315.92 36.21 -315.71 36.14 -315.49 36.08 -315.28 36.01 -315.06 35.94 -314.85 35.88 -314.63 35.81 -314.42 35.74 -314.2 35.67 -313.99 35.61 -313.78 35.54 -313.56 35.47 -313.35 35.4 -313.13 35.34 -312.92 35.27 -312.7 35.2 -312.49 35.13 -312.27 35.06 -312.06 35 -311.85 34.93 -311.63 34.86 -311.42 34.79 -311.2 34.72 -310.99 34.65 -310.77 34.59 -310.56 34.52 -310.34 34.45 -310.13 34.38 -309.92 34.31 -309.7 34.24 -309.49 34.17 -309.27 34.11 -309.06 34.04 -308.84 33.97 -308.63 33.9 -308.41 33.83 -308.2 33.76 -307.99 33.69 -307.77 33.62 -307.56 33.55 -307.34 33.48 -307.13 33.41 -306.91 33.35 -306.7 33.28 -306.48 33.21 -306.27 33.14 -306.06 33.07 -305.84 33 -305.63 32.93 -305.41 32.86 -305.2 32.79 -304.98 32.72 -304.77 32.65 -304.55 32.58 -304.34 32.51 -304.13 32.44 -303.91 32.37 -303.7 32.3 -303.48 32.23 -303.27 32.16 -303.05 32.09 -302.84 32.02 -302.62 31.95 -302.41 31.88 -302.2 31.81 -301.98 31.74 -301.77 31.67 -301.55 31.6 -301.34 31.53 -301.12 31.46 -300.91 31.38 -300.69 31.31 -300.48 31.24 -300.27 31.17 -300.05 31.1 -299.84 31.03 -299.62 30.96 -299.41 30.89 -299.19 30.82 -298.98 30.75 -298.76 30.67 -298.55 30.6 -298.34 30.53 -298.12 30.46 -297.91 30.39 -297.69 30.32 -297.48 30.25 -297.26 30.18 -297.05 30.1 -296.83 30.03 -296.62 29.96 -296.41 29.89 -296.19 29.82 -295.98 29.75 -295.76 29.67 -295.55 29.6 -295.33 29.53 -295.12 29.46 -294.91 29.39 -294.69 29.32 -294.48 29.24 -294.26 29.17 -294.05 29.1 -293.83 29.03 -293.62 28.96 -293.4 28.88 -293.19 28.81 -292.98 28.74 -292.76 28.67 -292.55 28.6 -292.33 28.53 -292.12 28.45 -291.9 28.38 -291.69 28.31 -291.47 28.24 -291.26 28.17 -291.05 28.09 -290.83 28.02 -290.62 27.95 -290.4 27.88 -290.19 27.81 -289.97 27.74 -289.76 27.66 -289.54 27.59 -289.33 27.52 -289.12 27.45 -288.9 27.38 -288.69 27.3 -288.47 27.23 -288.26 27.16 -288.04 27.09 -287.83 27.02 -287.61 26.95 -287.4 26.87 -287.19 26.8 -286.97 26.73 -286.76 26.66 -286.54 26.59 -286.33 26.51 -286.11 26.44 -285.9 26.37 -285.68 26.3 -285.47 26.23 -285.26 26.16 -285.04 26.09 -284.83 26.01 -284.61 25.94 -284.4 25.87 -284.18 25.8 -283.97 25.73 -283.75 25.66 -283.54 25.59 -283.33 25.51 -283.11 25.44 -282.9 25.37 -282.68 25.3 -282.47 25.23 -282.25 25.16 -282.04 25.09 -281.82 25.01 -281.61 24.94 -281.4 24.87 -281.18 24.8 -280.97 24.73 -280.75 24.66 -280.54 24.59 -280.32 24.51 -279.92 24.38 -279.79 24.34 -279.68 24.3 -279.47 24.23 -279.25 24.16 -279.04 24.09 -278.82 24.02 -278.61 23.95 -278.39 23.87 -278.18 23.8 -277.96 23.73 -277.75 23.66 -277.54 23.59 -277.32 23.52 -277.11 23.45 -276.89 23.38 -276.68 23.3 -276.46 23.23 -276.25 23.16 -276.03 23.09 -275.82 23.02 -275.61 22.95 -275.39 22.88 -275.18 22.8 -274.96 22.73 -274.75 22.66 -274.53 22.59 -274.32 22.52 -274.11 22.45 -273.89 22.37 -273.68 22.3 -273.46 22.23 -273.25 22.16 -273.03 22.09 -272.82 22.02 -272.6 21.95 -272.39 21.87 -272.18 21.8 -271.96 21.73 -271.75 21.66 -271.53 21.59 -271.32 21.51 -271.1 21.44 -270.89 21.37 -270.67 21.3 -270.46 21.23 -270.25 21.16 -270.03 21.09 -269.82 21.01 -269.6 20.94 -269.39 20.87 -269.17 20.8 -268.96 20.73 -268.74 20.66 -268.53 20.58 -268.32 20.51 -268.1 20.44 -267.89 20.37 -267.67 20.3 -267.46 20.23 -267.24 20.15 -267.03 20.08 -266.81 20.01 -266.6 19.94 -266.39 19.87 -266.17 19.8 -265.96 19.73 -265.74 19.65 -265.53 19.58 -265.31 19.51 -265.1 19.44 -264.88 19.37 -264.67 19.3 -264.46 19.22 -264.24 19.15 -264.03 19.08 -263.81 19.01 -263.6 18.94 -263.38 18.87 -263.17 18.8 -262.95 18.72 -262.74 18.65 -262.53 18.58 -262.31 18.51 -262.1 18.44 -261.88 18.37 -261.67 18.29 -261.45 18.22 -261.24 18.15 -261.02 18.08 -260.81 18.01 -260.6 17.94 -260.38 17.87 -260.17 17.8 -259.95 17.73 -259.74 17.65 -259.52 17.58 -259.31 17.51 -259.09 17.44 -258.88 17.37 -258.67 17.3 -258.45 17.23 -258.24 17.15 -258.02 17.08 -257.81 17.01 -257.59 16.94 -257.38 16.87 -257.16 16.8 -256.95 16.73 -256.74 16.66 -256.52 16.59 -256.31 16.51 -256.09 16.44 -255.88 16.37 -255.66 16.3 -255.45 16.23 -255.23 16.16 -255.02 16.09 -254.81 16.02 -254.59 15.95 -254.38 15.87 -254.16 15.8 -253.95 15.73 -253.73 15.66 -253.52 15.59 -253.31 15.52 -253.09 15.45 -252.88 15.38 -252.66 15.31 -252.45 15.24 -252.23 15.16 -252.02 15.09 -251.8 15.02 -251.59 14.95 -251.38 14.88 -251.16 14.81 -250.95 14.74 -250.73 14.67 -250.52 14.6 -250.3 14.53 -250.09 14.46 -249.87 14.38 -249.66 14.31 -249.45 14.24 -249.23 14.17 -249.02 14.1 -248.8 14.03 -248.59 13.96 -248.37 13.89 -248.16 13.82 -247.94 13.75 -247.73 13.68 -247.52 13.61 -247.3 13.53 -247.09 13.46 -246.87 13.39 -246.66 13.32 -246.44 13.25 -246.23 13.18 -246.01 13.11 -245.8 13.04 -245.59 12.97 -245.37 12.9 -245.16 12.83 -244.94 12.76 -244.73 12.69 -244.51 12.62 -244.3 12.54 -244.08 12.47 -243.87 12.4 -243.66 12.33 -243.44 12.26 -243.23 12.19 -243.01 12.12 -242.8 12.05 -242.58 11.98 -242.37 11.91 -242.15 11.84 -241.94 11.77 -241.73 11.7 -241.51 11.63 -241.3 11.56 -241.08 11.49 -240.87 11.42 -240.65 11.35 -240.44 11.28 -240.22 11.2 -240.01 11.13 -239.8 11.06 -239.58 10.99 -239.37 10.92 -239.15 10.85 -238.94 10.78 -238.72 10.71 -238.51 10.64 -238.29 10.57 -238.08 10.5 -237.87 10.43 -237.65 10.36 -237.44 10.29 -237.22 10.22 -237.01 10.15 -236.79 10.08 -236.58 10.01 -236.36 9.94 -236.15 9.87 -235.94 9.8 -235.72 9.73 -235.51 9.66 -235.29 9.59 -235.08 9.52 -234.86 9.45 -234.65 9.38 -234.43 9.31 -234.22 9.24 -234.01 9.17 -233.79 9.1 -233.58 9.03 -233.36 8.96 -233.15 8.89 -232.93 8.82 -232.72 8.75 -232.51 8.68 -232.29 8.61 -232.08 8.54 -231.86 8.47 -231.65 8.4 -231.43 8.33 -231.22 8.26 -231 8.19 -230.79 8.12 -230.58 8.05 -230.36 7.98 -230.15 7.91 -229.93 7.84 -229.72 7.77 -229.5 7.7 -229.29 7.63 -229.07 7.56 -228.86 7.49 -228.65 7.42 -228.43 7.35 -228.22 7.28 -228 7.22 -227.79 7.15 -227.57 7.07 -227.36 7.01 -227.14 6.94 -226.93 6.87 -226.72 6.8 -226.5 6.73 -226.29 6.66 -226.07 6.59 -225.86 6.52 -225.64 6.45 -225.43 6.38 -225.21 6.31 -225 6.24 -224.79 6.17 -224.57 6.1 -224.36 6.03 -224.14 5.96 -223.93 5.9 -223.71 5.82 -223.5 5.76 -223.28 5.69 -223.07 5.62 -222.86 5.55 -222.64 5.48 -222.43 5.41 -222.21 5.34 -222 5.27 -221.78 5.2 -221.57 5.13 -221.35 5.06 -221.14 4.99 -220.93 4.93 -220.71 4.86 -220.5 4.79 -220.28 4.72 -220.07 4.65 -219.85 4.58 -219.64 4.51 -219.42 4.44 -219.21 4.37 -219 4.3 -218.78 4.23 -218.57 4.17 -218.35 4.1 -218.14 4.03 -217.92 3.96 -217.71 3.89 -217.49 3.82 -217.28 3.75 -217.07 3.68 -216.85 3.61 -216.64 3.54 -216.42 3.48 -216.21 3.41 -215.99 3.34 -215.78 3.27 -215.56 3.2 -215.35 3.13 -215.14 3.06 -214.92 2.99 -214.71 2.93 -214.49 2.86 -214.28 2.79 -214.06 2.72 -213.85 2.65 -213.63 2.58 -213.42 2.51 -213.21 2.45 -212.99 2.38 -212.78 2.31 -212.56 2.24 -212.35 2.17 -212.13 2.1 -211.92 2.03 -211.71 1.96 -211.49 1.9 -211.28 1.83 -211.06 1.76 -210.85 1.69 -210.63 1.62 -210.42 1.55 -210.2 1.49 -209.99 1.42 -209.78 1.35 -209.56 1.28 -209.35 1.21 -209.13 1.14 -208.92 1.07 -208.7 1.01 -208.49 .94 -208.27 .87 -208.06 .8 -207.85 .73 -207.63 .66 -207.42 .6 -207.2 .53 -206.99 .46 -206.77 .39 -206.56 .32 -206.34 .26 -206.13 .19 -205.92 .12 -205.7 .05 -205.49 -.02 -205.27 -.09 -205.06 -.15 -204.84 -.22 -204.63 -.29 -204.41 -.36 -204.2 -.43 -203.99 -.49 -203.77 -.56 -203.56 -.63 -203.34 -.7 -203.13 -.77 -202.91 -.83 -202.7 -.9 -202.48 -.97 -202.27 -1.04 -202.06 -1.11 -201.84 -1.18 -201.63 -1.24 -201.41 -1.31 -201.2 -1.38 -200.98 -1.45 -200.77 -1.51 -200.55 -1.58 -200.34 -1.65 -200.13 -1.72 -199.91 -1.79 -199.7 -1.85 -199.48 -1.92 -199.27 -1.99 -199.05 -2.06 -198.84 -2.12 -198.62 -2.19 -198.41 -2.26 -198.2 -2.33 -197.98 -2.4 -197.77 -2.46 -197.55 -2.53 -197.34 -2.6 -197.12 -2.67 -196.91 -2.73 -196.69 -2.8 -196.48 -2.87 -196.27 -2.94 -196.05 -3 -195.84 -3.07 -195.62 -3.14 -195.41 -3.21 -195.19 -3.27 -194.98 -3.34 -194.76 -3.41 -194.55 -3.48 -194.34 -3.54 -194.12 -3.61 -193.91 -3.68 -193.69 -3.75 -193.48 -3.81 -193.26 -3.88 -193.05 -3.95 -192.83 -4.02 -192.62 -4.08 -192.41 -4.15 -192.19 -4.22 -191.98 -4.29 -191.76 -4.35 -191.55 -4.42 -191.33 -4.49 -191.12 -4.55 -190.91 -4.62 -190.69 -4.69 -190.48 -4.76 -190.26 -4.82 -190.05 -4.89 -189.83 -4.96 -189.62 -5.02 -189.4 -5.09 -189.19 -5.16 -188.98 -5.23 -188.76 -5.29 -188.55 -5.36 -188.33 -5.43 -188.12 -5.49 -187.9 -5.56 -187.69 -5.63 -187.47 -5.69 -187.26 -5.76 -187.05 -5.83 -186.83 -5.9 -186.62 -5.96 -186.4 -6.03 -186.19 -6.1 -185.97 -6.16 -185.76 -6.23 -185.54 -6.3 -185.33 -6.36 -185.12 -6.43 -184.9 -6.5 -184.69 -6.56 -184.47 -6.63 -184.26 -6.7 -184.04 -6.76 -183.83 -6.83 -183.61 -6.9 -183.4 -6.97 -183.19 -7.03 -182.97 -7.1 -182.76 -7.17 -182.54 -7.23 -182.33 -7.3 -182.11 -7.37 -181.9 -7.43 -181.68 -7.5 -181.47 -7.57 -181.26 -7.63 -181.04 -7.7 -180.83 -7.77 -180.61 -7.83 -180.4 -7.9 -180.18 -7.96 -179.97 -8.03 -179.75 -8.1 -179.54 -8.16 -179.33 -8.23 -179.11 -8.3 -178.9 -8.36 -178.68 -8.43 -178.47 -8.5 -178.25 -8.56 -178.04 -8.63 -177.82 -8.7 -177.61 -8.76 -177.4 -8.83 -177.18 -8.89 -176.97 -8.96 -176.75 -9.03 -176.54 -9.09 -176.32 -9.16 -176.11 -9.23 -175.89 -9.29 -175.68 -9.36 -175.47 -9.43 -175.25 -9.49 -175.04 -9.56 -174.82 -9.62 -174.61 -9.69 -174.39 -9.76 -174.18 -9.82 -173.96 -9.89 -173.75 -9.96 -173.54 -10.02 -173.32 -10.09 -173.11 -10.15 -172.89 -10.22 -172.68 -10.29 -172.46 -10.35 -172.25 -10.42 -172.03 -10.48 -171.82 -10.55 -171.61 -10.62 -171.39 -10.68 -171.18 -10.75 -170.96 -10.81 -170.75 -10.88 -170.53 -10.94 -170.32 -11.01 -170.11 -11.08 -169.89 -11.14 -169.68 -11.21 -169.46 -11.27 -169.25 -11.34 -169.03 -11.41 -168.82 -11.47 -168.6 -11.54 -168.39 -11.6 -168.18 -11.67 -167.96 -11.73 -167.75 -11.8 -167.53 -11.87 -167.32 -11.93 -167.1 -12 -166.89 -12.06 -166.67 -12.13 -166.46 -12.19 -166.25 -12.26 -166.03 -12.33 -165.82 -12.39 -165.6 -12.46 -165.39 -12.52 -165.17 -12.59 -164.96 -12.65 -164.74 -12.72 -164.53 -12.79 -164.32 -12.85 -164.1 -12.92 -163.89 -12.98 -163.67 -13.05 -163.46 -13.11 -163.24 -13.18 -163.03 -13.24 -162.81 -13.31 -162.6 -13.38 -162.39 -13.44 -162.17 -13.51 -161.96 -13.57 -161.74 -13.64 -161.53 -13.7 -161.31 -13.77 -161.1 -13.83 -160.88 -13.9 -160.67 -13.96 -160.46 -14.03 -160.24 -14.09 -160.03 -14.16 -159.81 -14.22 -159.6 -14.29 -159.38 -14.35 -159.17 -14.42 -158.95 -14.49 -158.74 -14.55 -158.53 -14.61 -158.31 -14.68 -158.1 -14.75 -157.88 -14.81 -157.67 -14.88 -157.45 -14.94 -157.24 -15.01 -157.02 -15.07 -156.81 -15.14 -156.6 -15.2 -156.38 -15.27 -156.17 -15.33 -155.95 -15.4 -155.74 -15.46 -155.52 -15.53 -155.31 -15.59 -155.09 -15.66 -154.88 -15.72 -154.67 -15.79 -154.45 -15.85 -154.24 -15.91 -154.02 -15.98 -153.81 -16.04 -153.59 -16.11 -153.38 -16.17 -153.16 -16.24 -152.95 -16.3 -152.74 -16.37 -152.52 -16.43 -152.31 -16.5 -152.09 -16.56 -151.88 -16.63 -151.66 -16.69 -151.45 -16.76 -151.23 -16.82 -151.02 -16.89"/>
  </g>
  <text class="st12" transform="translate(-140.84 75.06)"><tspan x="0" y="0">Surface</tspan></text>
  <text class="st12" transform="translate(-140.84 53.69)"><tspan x="0" y="0">Bottom</tspan></text>
  <text class="st12" transform="translate(-138.62 -11.14)"><tspan x="0" y="0">CM</tspan></text>
  <text class="st12" transform="translate(-141.02 -82.41)"><tspan x="0" y="0">Top</tspan></text>
</svg>