<?xml version="1.0" encoding="UTF-8"?>
<svg xmlns="http://www.w3.org/2000/svg" version="1.1" viewBox="0 0 396 432">
  <!-- Generator: Adobe Illustrator 29.3.1, SVG Export Plug-In . SVG Version: 2.1.0 Build 151)  -->
  <defs>
    <style>
      .st0 {
        font-size: 7.65px;
      }

      .st0, .st1 {
        font-family: Helvetica, Helvetica;
      }

      .st0, .st2 {
        fill: #4d4d4f;
      }

      .st3 {
        stroke: #4d4d4f;
        stroke-linecap: square;
      }

      .st3, .st4, .st5, .st6, .st7, .st8, .st9, .st10, .st11, .st12 {
        fill: none;
      }

      .st3, .st5, .st6, .st10, .st12 {
        stroke-linejoin: round;
      }

      .st3, .st6 {
        stroke-width: .5px;
      }

      .st4, .st5, .st7, .st8, .st9, .st10, .st11, .st12 {
        stroke-width: 1.5px;
      }

      .st4, .st7, .st8, .st9, .st11 {
        stroke-linejoin: bevel;
      }

      .st4, .st7, .st10, .st13 {
        display: none;
      }

      .st4, .st9 {
        stroke: #ed2224;
      }

      .st4, .st10 {
        stroke-dasharray: 8 8;
      }

      .st5 {
        stroke: #1372ba;
      }

      .st1 {
        fill: #4e4e50;
        font-size: 8.69px;
      }

      .st6 {
        stroke: #e1e2e3;
      }

      .st14 {
        letter-spacing: 4.34em;
      }

      .st7 {
        stroke-dasharray: 8 3 2 3;
      }

      .st7, .st8, .st11 {
        stroke: #231f20;
      }

      .st15 {
        fill: #fff;
      }

      .st8 {
        stroke-dasharray: 10 6;
      }

      .st9 {
        stroke-dasharray: 2 2;
      }

      .st10 {
        stroke: #ed1c24;
      }

      .st11 {
        stroke-dasharray: 12 3 6 3;
      }

      .st12 {
        stroke: #0e72ba;
      }
    </style>
  </defs>
  <g id="Layer_1">
    <rect class="st15" x="34.57" y="14.79" width="163.41" height="163.41"/>
    <path class="st6" d="M34.57,178.2V14.79M78.14,178.2V14.79M121.72,178.2V14.79M165.29,178.2V14.79M197.97,178.2H34.57M197.97,161.86H34.57M197.97,145.52H34.57M197.97,129.17H34.57M197.97,112.83H34.57M197.97,96.49H34.57M197.97,80.15H34.57M197.97,63.81H34.57M197.97,47.47H34.57M197.97,31.13H34.57M197.97,14.79H34.57"/>
    <path class="st3" d="M34.57,178.2h163.41M34.57,14.79h163.41M34.57,178.2v-1.63M78.14,178.2v-1.63M121.72,178.2v-1.63M165.29,178.2v-1.63M34.57,14.79v1.63M78.14,14.79v1.63M121.72,14.79v1.63M165.29,14.79v1.63"/>
    <text class="st1" transform="translate(32.13 187.57)"><tspan x="0" y="0">0</tspan></text>
    <path class="st3" d="M34.57,178.2V14.79M197.97,178.2V14.79M34.57,178.2h1.63M34.57,161.86h1.63M34.57,145.52h1.63M34.57,129.17h1.63M34.57,112.83h1.63M34.57,96.49h1.63M34.57,80.15h1.63M34.57,63.81h1.63M34.57,47.47h1.63M34.57,31.13h1.63M34.57,14.79h1.63M197.97,178.2h-1.63M197.97,161.86h-1.63M197.97,145.52h-1.63M197.97,129.17h-1.63M197.97,112.83h-1.63M197.97,96.49h-1.63M197.97,80.15h-1.63M197.97,63.81h-1.63M197.97,47.47h-1.63M197.97,31.13h-1.63M197.97,14.79h-1.63"/>
    <text class="st1" transform="translate(16.67 180.94)"><tspan x="0" y="0">-1.5</tspan></text>
    <text class="st1" transform="translate(23.37 164.59)"><tspan x="0" y="0">-1</tspan></text>
    <text class="st1" transform="translate(16.67 148.25)"><tspan x="0" y="0">-0.5</tspan></text>
    <text class="st1" transform="translate(27.63 131.91)"><tspan x="0" y="0">0</tspan></text>
    <text class="st1" transform="translate(20.93 115.56)"><tspan x="0" y="0">0.5</tspan></text>
    <text class="st1" transform="translate(27.63 99.22)"><tspan x="0" y="0">1</tspan></text>
    <text class="st1" transform="translate(19.85 82.88)"><tspan x="0" y="0">1.5</tspan></text>
    <text class="st1" transform="translate(26.54 66.54)"><tspan x="0" y="0">2</tspan></text>
    <text class="st1" transform="translate(19.85 50.19)"><tspan x="0" y="0">2.5</tspan></text>
    <text class="st1" transform="translate(26.54 33.86)"><tspan x="0" y="0">3</tspan></text>
    <text class="st1" transform="translate(19.85 17.51)"><tspan x="0" y="0">3.5</tspan></text>
    <polyline class="st7" points="34.57 129.17 34.78 129.17 35 129.17 35.22 129.17 35.44 129.17 35.66 129.17 35.87 129.17 36.09 129.17 36.31 129.17 36.53 129.17 36.75 129.17 36.96 129.17 37.18 129.17 37.4 129.17 37.62 129.17 37.83 129.17 38.05 129.17 38.27 129.17 38.49 129.17 38.71 129.17 38.92 129.17 39.14 129.17 39.36 129.17 39.58 129.17 39.8 129.17 40.01 129.17 40.23 129.17 40.45 129.17 40.67 129.17 40.88 129.17 41.1 129.17 41.32 129.17 41.54 129.17 41.76 129.17 41.97 129.17 42.19 129.17 42.41 129.17 42.63 129.17 42.85 129.17 43.06 129.17 43.28 129.17 43.5 129.17 43.72 129.17 43.94 129.17 44.15 129.17 44.37 129.17 44.59 129.17 44.81 129.17 45.02 129.17 45.24 129.17 45.46 129.17 45.68 129.17 45.9 129.17 46.11 129.17 46.33 129.17 46.55 129.17 46.77 129.17 46.99 129.17 47.2 129.17 47.42 129.17 47.64 129.17 47.86 129.17 48.07 129.17 48.29 129.17 48.51 129.17 48.73 129.17 48.95 129.17 49.16 129.17 49.38 129.17 49.6 129.17 49.82 129.17 50.04 129.17 50.25 129.17 50.47 129.17 50.69 129.17 50.91 129.17 51.13 129.17 51.34 129.17 51.56 129.17 51.78 129.17 52 129.17 52.21 129.17 52.43 129.17 52.65 129.17 52.87 129.17 53.09 129.17 53.3 129.17 53.52 129.17 53.74 129.17 53.96 129.17 54.18 129.17 54.39 129.17 54.61 129.17 54.83 129.17 55.05 129.17 55.26 129.17 55.48 129.17 55.7 129.17 55.92 129.17 56.14 129.17 56.35 129.17 56.57 129.17 56.79 129.17 57.01 129.17 57.23 129.17 57.44 129.17 57.66 129.17 57.88 129.17 58.1 129.17 58.32 129.17 58.53 129.17 58.75 129.17 58.97 129.17 59.19 129.17 59.4 129.17 59.62 129.17 59.84 129.17 60.06 129.17 60.28 129.17 60.49 129.17 60.71 129.17 60.93 129.17 61.15 129.17 61.37 129.17 61.58 129.17 61.8 129.17 62.02 129.17 62.24 129.17 62.45 129.17 62.67 129.17 62.89 129.17 63.11 129.17 63.33 129.17 63.54 129.17 63.76 129.17 63.98 129.17 64.2 129.17 64.42 129.17 64.63 129.17 64.85 129.17 65.07 129.17 65.29 129.17 65.51 129.17 65.72 129.17 65.94 129.17 66.16 129.17 66.38 129.17 66.59 129.17 66.81 129.17 67.03 129.17 67.25 129.17 67.47 129.17 67.68 129.17 67.9 129.17 68.12 129.17 68.34 129.17 68.56 129.17 68.77 129.17 68.99 129.17 69.21 129.17 69.43 129.17 69.64 129.17 69.86 129.17 70.08 129.17 70.3 129.17 70.52 129.17 70.73 129.17 70.95 129.17 71.17 129.17 71.39 129.17 71.61 129.17 71.82 129.17 72.04 129.17 72.26 129.17 72.48 129.17 72.7 129.17 72.91 129.17 73.13 129.17 73.35 129.17 73.57 129.17 73.78 129.17 74 129.17 74.22 129.17 74.44 129.17 74.66 129.17 74.87 129.17 75.09 129.17 75.31 129.17 75.53 129.17 75.75 129.17 75.96 129.17 76.18 129.17 76.4 129.17 76.62 129.17 76.83 129.17 77.05 129.17 77.27 129.17 77.49 129.17 77.71 129.17 77.92 129.17 78.14 129.17 78.36 129.17 78.58 129.17 78.8 129.17 79.01 129.17 79.23 129.17 79.45 129.17 79.67 129.17 79.88 129.17 80.1 129.17 80.32 129.17 80.54 129.17 80.76 129.17 80.97 129.17 81.19 129.17 81.41 129.17 81.63 129.17 81.85 129.17 82.06 129.17 82.28 129.17 82.5 129.17 82.72 129.17 82.94 129.17 83.15 129.17 83.37 129.17 83.59 129.17 83.81 129.17 84.02 129.17 84.24 129.17 84.46 129.17 84.68 129.17 84.9 129.17 85.11 129.17 85.33 129.17 85.55 129.17 85.77 129.17 85.99 129.17 86.2 129.17 86.42 129.17 86.64 129.17 86.86 129.17 87.07 129.17 87.29 129.17 87.51 129.17 87.73 129.17 87.95 129.17 88.16 129.17 88.38 129.17 88.6 129.17 88.82 129.17 89.04 129.17 89.25 129.17 89.47 129.17 89.69 129.17 89.91 129.17 90.13 129.17 90.34 129.17 90.56 129.17 90.78 129.17 91 129.17 91.21 129.17 91.43 129.17 91.65 129.17 91.87 129.17 92.09 129.17 92.3 129.17 92.52 129.17 92.74 129.17 92.96 129.17 93.18 129.17 93.39 129.17 93.61 129.17 93.83 129.17 94.05 129.17 94.26 129.17 94.48 129.17 94.7 129.17 94.92 129.17 95.14 129.17 95.35 129.17 95.57 129.17 95.79 129.17 96.01 129.17 96.23 129.17 96.44 129.17 96.66 129.17 96.88 129.17 97.1 129.17 97.32 129.17 97.53 129.17 97.75 129.17 97.97 129.17 98.19 129.17 98.4 129.17 98.62 129.17 98.84 129.17 99.06 129.17 99.28 129.17 99.49 129.17 99.71 129.17 99.93 129.17 100.15 129.17 100.37 129.17 100.58 129.17 100.8 129.17 101.02 129.17 101.24 129.17 101.45 129.17 101.67 129.17 101.89 129.17 102.11 129.17 102.33 129.17 102.54 129.17 102.76 129.17 102.98 129.17 103.2 129.17 103.42 129.17 103.63 129.17 103.85 129.17 104.07 129.17 104.29 129.17 104.51 129.17 104.72 129.17 104.94 129.17 105.16 129.17 105.38 129.17 105.59 129.17 105.81 129.17 106.03 129.17 106.25 129.17 106.47 129.17 106.68 129.17 106.9 129.17 107.12 129.17 107.34 129.17 107.56 129.17 107.77 129.17 107.99 129.17 108.21 129.17 108.43 129.17 108.64 129.17 108.86 129.17 109.08 129.17 109.3 129.17 109.52 129.17 109.73 129.17 109.95 129.17 110.17 129.17 110.39 129.17 110.61 129.17 110.82 129.17 111.04 129.17 111.26 129.17 111.48 129.17 111.7 129.17 111.91 129.17 112.13 129.17 112.35 129.17 112.57 129.17 112.78 129.17 113 129.17 113.22 129.17 113.44 129.17 113.66 129.17 113.87 129.17 114.09 129.17 114.31 129.17 114.53 129.17 114.75 129.17 114.96 129.17 115.18 129.17 115.4 129.17 115.62 129.17 115.83 129.17 116.05 129.17 116.27 129.17 116.49 129.17 116.71 129.17 116.92 129.17 117.14 129.17 117.36 129.17 117.58 129.17 117.8 129.17 118.01 129.17 118.23 129.17 118.45 129.17 118.67 129.17 118.88 129.17 119.1 129.17 119.32 129.17 119.54 129.17 119.76 129.17 119.97 129.17 120.19 129.17 120.41 129.17 120.63 129.17 120.85 129.17 121.06 129.17 121.28 129.17 121.5 129.17 121.72 129.17 121.94 129.17 122.15 129.17 122.37 129.17 122.59 129.17 122.81 129.17 123.02 129.17 123.24 129.17 123.46 129.17 123.68 129.17 123.9 129.17 124.11 129.17 124.33 129.17 124.55 129.17 124.77 129.17 124.99 129.17 125.2 129.17 125.42 129.17 125.64 129.17 125.86 129.17 126.07 129.17 126.29 129.17 126.51 129.17 126.73 129.17 126.95 129.17 127.16 129.17 127.38 129.17 127.6 129.17 127.82 129.17 128.04 129.17 128.25 129.17 128.47 129.17 128.69 129.17 128.91 129.17 129.13 129.17 129.34 129.17 129.56 129.17 129.78 129.17 130 129.17 130.21 129.17 130.43 129.17 130.65 129.17 130.87 129.17 131.09 129.17 131.3 129.17 131.52 129.17 131.74 129.17 131.96 129.17 132.18 129.17 132.39 129.17 132.61 129.17 132.83 129.17 133.05 129.17 133.26 129.17 133.48 129.17 133.7 129.17 133.92 129.17 134.14 129.17 134.35 129.17 134.57 129.17 134.79 129.17 135.01 129.17 135.23 129.17 135.44 129.17 135.66 129.17 135.88 129.17 136.1 129.17 136.32 129.17 136.53 129.17 136.75 129.17 136.97 129.17 137.19 129.17 137.4 129.17 137.62 129.17 137.84 129.17 138.06 129.17 138.28 129.17 138.49 129.17 138.71 129.17 138.93 129.17 139.15 129.17 139.37 129.17 139.58 129.17 139.8 129.17 140.02 129.17 140.24 129.17 140.45 129.17 140.67 129.17 140.89 129.17 141.11 129.17 141.33 129.17 141.54 129.17 141.76 129.17 141.98 129.17 142.2 129.17 142.42 129.17 142.63 129.17 142.85 129.17 143.07 129.17 143.29 129.17 143.51 129.17 143.72 129.17 143.94 129.17 144.16 129.17 144.38 129.17 144.59 129.17 144.81 129.17 145.03 129.17 145.25 129.17 145.47 129.17 145.68 129.17 145.9 129.17 146.12 129.17 146.34 129.17 146.56 129.17 146.77 129.17 146.99 129.17 147.21 129.17 147.43 129.17 147.64 129.17 147.86 129.17 148.08 129.17 148.3 129.17 148.52 129.17 148.73 129.17 148.95 129.17 149.17 129.17 149.39 129.17 149.61 129.17 149.82 129.17 150.04 129.17 150.26 129.17 150.48 129.17 150.7 129.17 150.91 129.17 151.13 129.17 151.35 129.17 151.57 129.17 151.78 129.17 152 129.17 152.22 129.17 152.44 129.17 152.66 129.17 152.87 129.17 153.09 129.17 153.31 129.17 153.53 129.17 153.75 129.17 153.96 129.17 154.18 129.17 154.4 129.17 154.62 129.17 154.83 129.17 155.05 129.17 155.27 129.17 155.49 129.17 155.71 129.17 155.92 129.17 156.14 129.17 156.36 129.17 156.58 129.17 156.8 129.17 157.01 129.17 157.23 129.17 157.45 129.17 157.67 129.17 157.88 129.17 158.1 129.17 158.32 129.17 158.54 129.17 158.76 129.17 158.97 129.17 159.19 129.17 159.41 129.17 159.63 129.17 159.85 129.17 160.06 129.17 160.28 129.17 160.5 129.17 160.72 129.17 160.94 129.17 161.15 129.17 161.37 129.17 161.59 129.17 161.81 129.17 162.02 129.17 162.24 129.17 162.46 129.17 162.68 129.17 162.9 129.17 163.11 129.17 163.33 129.17 163.55 129.17 163.77 129.17 163.99 129.17 164.2 129.17 164.42 129.17 164.64 129.17 164.86 129.17 165.07 129.17 165.29 129.17 165.51 129.17 165.73 129.17 165.95 129.17 166.16 129.17 166.38 129.17 166.6 129.17 166.82 129.17 167.04 129.17 167.25 129.17 167.47 129.17 167.69 129.17 167.91 129.17 168.13 129.17 168.34 129.17 168.56 129.17 168.78 129.17 169 129.17 169.21 129.17 169.43 129.17 169.65 129.17 169.87 129.17 170.09 129.17 170.3 129.17 170.52 129.17 170.74 129.17 170.96 129.17 171.18 129.17 171.39 129.17 171.61 129.17 171.83 129.17 172.05 129.17 172.26 129.17 172.48 129.17 172.7 129.17 172.92 129.17 173.14 129.17 173.35 129.17 173.57 129.17 173.79 129.17 174.01 129.17 174.23 129.17 174.44 129.17 174.66 129.17 174.88 129.17 175.1 129.17 175.32 129.17 175.53 129.17 175.75 129.17 175.97 129.17 176.19 129.17 176.4 129.17 176.62 129.17 176.84 129.17 177.06 129.17 177.28 129.17 177.49 129.17 177.71 129.17 177.93 129.17 178.15 129.17 178.37 129.17 178.58 129.17 178.8 129.17 179.02 129.17 179.24 129.17 179.45 129.17 179.67 129.17 179.89 129.17 180.11 129.17 180.33 129.17 180.54 129.17 180.76 129.17 180.98 129.17 181.2 129.17 181.42 129.17 181.63 129.17 181.85 129.17 182.07 129.17 182.29 129.17 182.51 129.17 182.72 129.17 182.94 129.17 183.16 129.17 183.38 129.17 183.59 129.17 183.81 129.17 184.03 129.17 184.25 129.17 184.47 129.17 184.68 129.17 184.9 129.17 185.12 129.17 185.34 129.17 185.56 129.17 185.77 129.17 185.99 129.17 186.21 129.17 186.43 129.17 186.64 129.17 186.86 129.17 187.08 129.17 187.3 129.17 187.52 129.17 187.73 129.17 187.95 129.17 188.17 129.17 188.39 129.17 188.61 129.17 188.82 129.17 189.04 129.17 189.26 129.17 189.48 129.17 189.7 129.17 189.91 129.17 190.13 129.17 190.35 129.17 190.57 129.17 190.78 129.17 191 129.17 191.22 129.17 191.44 129.17 191.66 129.17 191.87 129.17 192.09 129.17 192.31 129.17 192.53 129.17 192.75 129.17 192.96 129.17 193.18 129.17 193.4 129.17 193.62 129.17 193.83 129.17 194.05 129.17 194.27 129.17 194.49 129.17 194.71 129.17 194.92 129.17 195.14 129.17 195.36 129.17 195.58 129.17 195.8 129.17 196.01 129.17 196.23 129.17 196.45 129.17 196.67 129.17 196.89 129.17 197.1 129.17 197.32 129.17 197.54 129.17 197.76 129.17 197.97 129.17 197.99 129.17"/>
    <text class="st1" transform="translate(76.13 187.74)"><tspan x="0" y="0">2</tspan></text>
    <text class="st1" transform="translate(119.76 187.74)"><tspan x="0" y="0">4</tspan></text>
    <text class="st1" transform="translate(163.74 187.9)"><tspan x="0" y="0">6</tspan></text>
    <rect class="st15" x="273.04" y="4.58" width="93.83" height="93.82"/>
    <path class="st6" d="M273.04,98.41V4.58M312.13,98.41V4.58M351.22,98.41V4.58M366.86,98.41h-93.83M366.86,79.64h-93.83M366.86,60.88h-93.83M366.86,42.11h-93.83M366.86,23.35h-93.83M366.86,4.58h-93.83"/>
    <path class="st3" d="M273.04,98.41h93.83M273.04,4.58h93.83M273.04,98.41v-.94M312.13,98.41v-.94M351.22,98.41v-.94M273.04,4.58v.94M312.13,4.58v.94M351.22,4.58v.94"/>
    <path class="st3" d="M273.04,98.41V4.58M366.86,98.41V4.58M273.04,98.41h.94M273.04,79.64h.94M273.04,60.88h.94M273.04,42.11h.94M273.04,23.35h.94M273.04,4.58h.94M366.86,98.41h-.94M366.86,79.64h-.94M366.86,60.88h-.94M366.86,42.11h-.94M366.86,23.35h-.94M366.86,4.58h-.94"/>
    <text class="st0" transform="translate(259.81 82.57)"><tspan x="0" y="0">0.2</tspan></text>
    <text class="st0" transform="translate(259.81 63.8)"><tspan x="0" y="0">0.4</tspan></text>
    <text class="st0" transform="translate(259.81 45.04)"><tspan x="0" y="0">0.6</tspan></text>
    <text class="st0" transform="translate(259.81 26.27)"><tspan x="0" y="0">0.8</tspan></text>
    <text class="st0" transform="translate(266.11 7.51)"><tspan x="0" y="0">1</tspan></text>
    <polyline class="st12" points="274.94 97.66 275.89 73.7 276.84 62.44 277.8 53.98 278.75 47.25 279.7 41.68 280.65 36.99 281.6 33 282.56 29.64 283.51 26.77 284.46 24.32 285.41 22.21 286.37 20.4 287.32 18.85 288.27 17.52 289.22 16.38 290.17 15.42 291.13 14.63 292.08 13.98 293.03 13.48 293.98 13.1 294.93 12.84 295.89 12.69 296.84 12.64 297.79 12.68 298.74 12.79 299.69 12.98 300.65 13.24 301.6 13.57 302.55 13.98 303.5 14.47 304.45 15.06 305.41 15.76 306.36 16.59 307.31 17.55 308.26 18.67 309.22 19.94 310.17 21.37 311.12 22.95 312.07 24.68 313.02 26.52 313.98 28.47 314.93 30.49 315.88 32.56 316.83 34.65 317.78 36.75 318.74 38.86 319.69 40.99 320.64 43.12 321.59 45.29 322.54 47.49 323.5 49.7 324.45 51.89 325.4 54.05 326.35 56.16 327.3 58.22 328.26 60.24 329.21 62.21 330.16 64.13 331.11 65.98 332.06 67.74 333.02 69.43 333.97 71.06 334.92 72.65 335.87 74.22 336.82 75.76 337.78 77.32 338.73 78.89 339.68 80.49 340.63 82.2 341.59 84.04 342.54 85.89 343.49 87.76 344.44 89.27 345.39 91.04 346.35 92.38 347.3 96.27 348.25 96.27 349.2 96.27 350.15 96.27 351.11 98.41 352.06 98.41 353.01 98.41 353.96 98.41 354.91 98.41 355.87 98.41 356.82 98.41 357.77 98.41 358.72 98.41 359.67 98.41 360.63 98.41 361.58 98.41 362.53 98.41 363.48 98.41 364.43 98.41 365.39 98.41 366.34 98.41 366.87 98.41"/>
    <polyline class="st8" points="273.02 71.41 275.34 52.67 277.68 41.97 280.01 34.7 282.35 29.14 284.69 24.98 287.03 21.54 289.37 19.01 291.71 17.18 294.05 16.18 296.38 15.67 298.72 16.56 301.06 15.72 303.4 15.19 305.74 17.78 308.08 22.44 310.41 28.28 312.75 33.39 315.09 37.57 317.43 41.6 319.77 45.18 322.11 49.12 324.44 52.57 326.78 55.34 329.12 57.22 331.46 59.43 333.8 61.46 336.14 63.17 338.47 65.01 340.81 67.75 343.15 70.84 345.49 73.11 347.83 75.43 350.17 77.77 352.51 80.05 354.84 82.88 357.18 87.4 359.52 97.15"/>
    <rect class="st15" x="273.15" y="108.86" width="93.6" height="93.6"/>
    <path class="st6" d="M273.7,202.46v-93.6M311.14,202.46v-93.6M348.58,202.46v-93.6M366.75,202.46h-93.6M366.75,179.06h-93.6M366.75,155.66h-93.6M366.75,132.26h-93.6M366.75,108.86h-93.6"/>
    <path class="st3" d="M273.15,202.46h93.6M273.15,108.86h93.6M273.7,202.46v-.94M311.14,202.46v-.94M348.58,202.46v-.94M273.7,108.86v.94M311.14,108.86v.94M348.58,108.86v.94"/>
    <text class="st0" transform="translate(271.45 212.54)"><tspan class="st14" x="0" y="0">02</tspan><tspan x="74.87" y="0">4</tspan></text>
    <path class="st2" d="M313.33,220.94c0-.08,0-.16.03-.23l.62-2.46h-.9c-.06,0-.08-.04-.08-.11.02-.12.06-.18.11-.18h.95l.34-1.4c.02-.08.07-.14.13-.19.07-.05.14-.08.23-.08.08,0,.14.02.19.06.05.04.07.1.07.18,0,.01,0,.02,0,.04,0,0,0,.02-.01.04l-.34,1.36h.88c.06,0,.08.04.08.11,0,.01,0,.04-.01.07,0,.03-.02.06-.04.08-.01.02-.04.03-.06.03h-.93l-.61,2.48c-.04.16-.06.3-.06.41,0,.25.08.37.25.37.25,0,.47-.12.67-.35.19-.24.34-.5.44-.78.02-.03.05-.05.07-.05h.1s.04,0,.05.03c.01.02.02.03.02.05,0,0,0,.02,0,.02-.13.35-.31.65-.55.91-.24.26-.51.39-.82.39-.23,0-.41-.07-.57-.22-.15-.15-.23-.34-.23-.57"/>
    <path class="st2" d="M316.32,223.6s0-.03,0-.03l2.97-8.24s.03-.06.06-.08.06-.03.1-.03c.05,0,.09.01.13.04.03.03.05.07.05.12v.04l-2.98,8.24c-.03.07-.09.11-.16.11-.05,0-.09-.02-.12-.05-.04-.03-.05-.07-.05-.12"/>
    <path class="st2" d="M320.58,220.94c0-.08,0-.16.03-.23l.62-2.46h-.9c-.06,0-.08-.04-.08-.11.02-.12.06-.18.11-.18h.95l.34-1.4c.02-.08.07-.14.13-.19.07-.05.14-.08.23-.08.08,0,.14.02.19.06.05.04.07.1.07.18,0,.01,0,.02,0,.04,0,0,0,.02-.01.04l-.34,1.36h.88c.06,0,.08.04.08.11,0,.01,0,.04-.01.07,0,.03-.02.06-.04.08-.01.02-.04.03-.06.03h-.93l-.61,2.48c-.04.16-.06.3-.06.41,0,.25.08.37.25.37.25,0,.47-.12.67-.35.19-.24.34-.5.44-.78.02-.03.05-.05.07-.05h.1s.04,0,.05.03c.01.02.02.03.02.05,0,0,0,.02,0,.02-.13.35-.31.65-.55.91-.24.26-.51.39-.82.39-.23,0-.41-.07-.57-.22-.15-.15-.23-.34-.23-.57"/>
    <path class="st2" d="M324.19,222.96c-.17,0-.33-.04-.46-.12-.14-.08-.24-.19-.31-.33-.07-.14-.11-.3-.11-.46,0-.18.04-.37.12-.57.08-.2.19-.38.34-.55s.3-.3.48-.4c.18-.1.36-.15.55-.15h1.48s.07.01.1.04c.03.03.04.06.04.11,0,.06-.02.11-.06.15-.04.04-.09.06-.14.06h-.72c.11.17.17.37.17.6,0,.2-.04.39-.11.58-.08.19-.18.36-.32.52-.14.16-.3.29-.48.38-.18.09-.37.14-.57.14M324.19,222.8c.22,0,.41-.08.57-.25.16-.17.29-.37.38-.61.09-.24.13-.46.13-.67,0-.17-.05-.3-.14-.4-.09-.1-.22-.14-.39-.14-.23,0-.42.08-.58.23-.16.15-.27.34-.35.57-.08.23-.12.45-.12.67,0,.16.05.3.13.42.09.12.21.18.37.18"/>
    <path class="st3" d="M273.15,202.46v-93.6M366.75,202.46v-93.6M273.15,202.46h.94M273.15,179.06h.94M273.15,155.66h.94M273.15,132.26h.94M273.15,108.86h.94M366.75,202.46h-.94M366.75,179.06h-.94M366.75,155.66h-.94M366.75,132.26h-.94M366.75,108.86h-.94"/>
    <text class="st0" transform="translate(259.92 205.39)"><tspan x="0" y="0">0.8</tspan></text>
    <text class="st0" transform="translate(259.92 181.99)"><tspan x="0" y="0">0.9</tspan></text>
    <text class="st0" transform="translate(266.22 158.58)"><tspan x="0" y="0">1</tspan></text>
    <text class="st0" transform="translate(259.92 135.18)"><tspan x="0" y="0">1.1</tspan></text>
    <text class="st0" transform="translate(259.92 111.78)"><tspan x="0" y="0">1.2</tspan></text>
    <polyline class="st12" points="273.7 155.67 274.61 155.63 275.52 155.59 276.43 155.52 277.34 155.42 278.26 155.24 279.17 154.93 280.08 154.35 280.99 153.36 281.9 151.85 282.81 149.81 283.73 147.3 284.64 144.5 285.55 141.57 286.46 138.7 287.37 136 288.29 133.57 289.2 131.45 290.11 129.66 291.02 128.17 291.93 126.99 292.84 126.07 293.76 125.4 294.67 124.97 295.58 124.74 296.49 124.72 297.4 124.9 298.32 125.3 299.23 125.9 300.14 126.73 301.05 127.78 301.96 129.04 302.87 130.5 303.79 132.14 304.7 133.93 305.61 135.82 306.52 137.78 307.43 139.77 308.34 141.74 309.26 143.66 310.17 145.48 311.08 147.2 311.99 148.77 312.9 150.19 313.82 151.45 314.73 152.54 315.64 153.45 316.55 154.19 317.46 154.76 318.37 155.18 319.29 155.45 320.2 155.58 321.11 155.6 322.02 155.51 322.93 155.33 323.84 155.08 324.76 154.78 325.67 154.44 326.58 154.07 327.49 153.7 328.4 153.33 329.32 152.97 330.23 152.64 331.14 152.34 332.05 152.09 332.96 151.89 333.87 151.75 334.79 151.66 335.7 151.63 336.61 151.67 337.52 151.77 338.43 151.93 339.35 152.15 340.26 152.43 341.17 152.75 342.08 153.12 342.99 153.53 343.9 153.97 344.82 154.44 345.73 154.92 346.64 155.4 347.55 155.89 348.46 156.36 349.38 156.81 350.29 157.23 351.2 157.62 352.11 157.96 353.02 158.26 353.93 158.49 354.85 158.67 355.76 158.78 356.67 158.83 357.58 158.82 358.49 158.75 359.4 158.62 360.32 158.44 361.23 158.22 362.14 157.96 363.05 157.66 363.96 157.33 364.88 156.98 365.79 156.61 366.7 156.23 366.76 156.2"/>
    <polyline class="st8" points="273.14 155.59 274.97 155.51 277.21 155.06 279.44 154.89 281.68 148.06 283.92 140.58 286.16 135 288.4 131.3 290.64 128.82 292.88 128.83 295.12 127.74 297.36 128.03 299.6 133.16 301.84 139.58 304.08 145.06 306.32 149.55 308.56 152.52 310.8 153.89 313.04 155.35 315.28 156.01 317.52 155.04 319.76 153.15 321.99 151.24 324.23 149.22 326.47 148.28 328.71 148.48 330.95 148.75 333.19 148.97 335.43 149.82 337.67 151.59 339.91 154.1 342.15 156.97 344.39 159.32 346.63 160.75 348.87 161.5 351.11 161.77 353.35 161.42 355.59 160.49 357.83 159.22 360.07 157.63 362.31 155.96 364.55 153.82 366.76 151.76"/>
  </g>
  <g id="_x31_PKM">
    <path class="st5" d="M34.57,129.18l.71.4.71.63.71.49.71.45.71.47.71.48.71.48.71.48.71.47.71.46.71.46.71.46.71.45.71.45.71.45.71.44.71.44.71.43.71.43.71.42.71.42.71.41.71.41.71.4.71.39.71.39.71.38.71.37.71.36.71.36.71.35.71.34.71.33.71.32.71.32.71.31.71.3.71.29.71.28.71.27.71.26.71.25.71.24.71.23.71.22.71.22.71.21.71.2.71.19.71.19.71.19.71.18.71.18.71.18.71.18.71.18.71.18.71.17.71.17.71.16.71.15.71.13.71.11.71.09.71.07.71.04h.71s.71,0,.71,0l.71-.04.71-.07.71-.11.71-.13.71-.16.71-.19.71-.22.71-.24.71-.27.71-.29.71-.31.71-.32.71-.33.71-.35.71-.35.71-.36.71-.36.71-.36.71-.36.71-.36.71-.36.71-.35.71-.35.71-.34.71-.34.71-.33.71-.32.71-.31.71-.31.71-.3.71-.29.71-.28.71-.27.71-.27.71-.26.71-.26.71-.25.71-.24.71-.24.71-.23.71-.23.71-.22.71-.21.71-.21.71-.2.71-.2.71-.19.71-.21.71-.23.71-.23.71-.24.71-.23.71-.24.71-.24.71-.23.71-.24.71-.23.71-.24.71-.24.71-.24.71-.24.71-.25.71-.25.71-.26.71-.26.71-.27.71-.28.71-.28.71-.29.71-.3.71-.31.71-.32.71-.33.71-.34.71-.35.71-.36.71-.37.71-.37.71-.38.71-.39.71-.39.71-.39.71-.4.71-.4.71-.4.71-.4.71-.4.71-.4.71-.39.71-.39.71-.38.71-.38.71-.37.71-.37.71-.36.71-.35.71-.34.71-.33.71-.33.71-.32.71-.31.71-.3.71-.29.71-.28.71-.28.71-.27.71-.26.71-.25.71-.25.71-.24.71-.23.71-.23.71-.23.71-.22.71-.22.71-.21.71-.21.71-.21.71-.21.71-.21.71-.21.71-.21.71-.21.71-.21.71-.21.71-.21.71-.22.71-.22.71-.22.71-.23.71-.23.71-.23.71-.24.71-.24.71-.25.71-.25.71-.26.71-.27.71-.27.71-.28.71-.28.71-.29.71-.29.71-.3.71-.3.71-.31.71-.31.71-.31.71-.32.71-.32.71-.32.71-.32.71-.32.71-.33.71-.32.71-.32.71-.32.71-.32.71-.32.71-.31.71-.31.71-.31.71-.3h0M34.57,63.81l.71.89.71.89.71.89.71.89.71.89.71.89.71.89.71.89.71.89.71.89.71.89.71.89.71.88.71.88.71.88.71.88.71.87.71.87.71.87.71.88.71.9.71.92.71.95.71.99.71,1.03.71,1.08.71,1.11.71,1.12.71,1.12.71,1.09.71,1.04.71.96.71.87.71.76.71.64.71.51.71.39.71.26.71.15.71.04.71-.06.71-.14.71-.21.71-.28.71-.33.71-.37.71-.4.71-.42.71-.44.71-.45.71-.46.71-.46.71-.46.71-.45.71-.44.71-.43.71-.42.71-.41.71-.4.71-.39.71-.38.71-.36.71-.35.71-.34.71-.33.71-.33.71-.32.71-.31.71-.3.71-.3.71-.3.71-.3.71-.29.71-.29.71-.29.71-.29.71-.29.71-.29.71-.29.71-.28.71-.28.71-.28.71-.27.71-.27.71-.26.71-.26.71-.25.71-.25.71-.24.71-.24.71-.23.71-.23.71-.23.71-.23.71-.23.71-.24.71-.24.71-.25.71-.26.71-.27.71-.28.71-.3.71-.31.71-.32.71-.33.71-.35.71-.36.71-.37.71-.39.71-.4.71-.41.71-.42.71-.43.71-.43.71-.44.71-.44.71-.45.71-.45.71-.45.71-.45.71-.44.71-.44.71-.43.71-.43.71-.42.71-.41.71-.4.71-.39.71-.39.71-.38.71-.37.71-.36.71-.35.71-.34.71-.33.71-.32.71-.31.71-.3.71-.29.71-.28.71-.27.71-.26.71-.26.71-.25.71-.24.71-.24.71-.23.71-.23.71-.23.71-.22.71-.22.71-.22.71-.22.71-.22.71-.22.71-.22.71-.22.71-.22.71-.22.71-.23.71-.23.71-.23.71-.24.71-.24.71-.24.71-.25.71-.25.71-.26.71-.27.71-.27.71-.28.71-.29.71-.29.71-.3.71-.31.71-.31.71-.32.71-.33.71-.33.71-.34.71-.34.71-.35.71-.35.71-.35.71-.36.71-.36.71-.36.71-.36.71-.36.71-.36.71-.36.71-.35.71-.35.71-.34.71-.34.71-.34.71-.33.71-.32.71-.32.71-.31.71-.3.71-.3.71-.29.71-.28.71-.27.71-.27.71-.26.71-.25.71-.25.71-.24.71-.23.71-.23.71-.22.71-.22.71-.21.71-.21.71-.21.71-.2.71-.2.71-.2.71-.2.71-.2.71-.2.71-.2.71-.2.71-.2.71-.2.71-.2.71-.2.71-.21.71-.21h0M34.57,129.18l.71.4.71.63.71.49.71.45.71.47.71.48.71.48.71.48.71.47.71.46.71.46.71.46.71.45.71.45.71.45.71.44.71.44.71.43.71.43.71.42.71.42.71.41.71.41.71.4.71.39.71.39.71.38.71.37.71.36.71.36.71.35.71.34.71.33.71.32.71.32.71.31.71.3.71.29.71.28.71.27.71.26.71.25.71.24.71.23.71.22.71.22.71.21.71.2.71.19.71.19.71.19.71.18.71.18.71.18.71.18.71.18.71.18.71.17.71.17.71.16.71.15.71.13.71.11.71.09.71.07.71.04h.71s.71,0,.71,0l.71-.04.71-.07.71-.11.71-.13.71-.16.71-.19.71-.22.71-.24.71-.27.71-.29.71-.31.71-.32.71-.33.71-.35.71-.35.71-.36.71-.36.71-.36.71-.36.71-.36.71-.36.71-.35.71-.35.71-.34.71-.34.71-.33.71-.32.71-.31.71-.31.71-.3.71-.29.71-.28.71-.27.71-.27.71-.26.71-.26.71-.25.71-.24.71-.24.71-.23.71-.23.71-.22.71-.21.71-.21.71-.2.71-.2.71-.19.71-.17.71-.15.71-.14.71-.13.71-.13.71-.12.71-.11.71-.11.71-.11.71-.1.71-.1.71-.09.71-.09.71-.09.71-.09.71-.08.71-.08.71-.08.71-.07.71-.07.71-.07.71-.07.71-.07.71-.07.71-.06.71-.06.71-.06.71-.06.71-.06.71-.06.71-.05.71-.05.71-.05.71-.05.71-.05.71-.05.71-.05.71-.05.71-.04.71-.05.71-.04.71-.04.71-.04.71-.04.71-.04.71-.04.71-.04.71-.04.71-.04.71-.04.71-.04.71-.04.71-.04.71-.03.71-.03.71-.03.71-.03.71-.03.71-.03.71-.03.71-.03.71-.03.71-.03.71-.03.71-.03.71-.03.71-.03.71-.03.71-.03.71-.03.71-.03.71-.02.71-.03.71-.02.71-.02.71-.02.71-.02.71-.02.71-.02.71-.02.71-.02.71-.02.71-.02.71-.02.71-.02.71-.02.71-.02.71-.02.71-.02.71-.02.71-.02.71-.02.71-.02.71-.02.71-.02.71-.02.71-.02.71-.02.71-.02.71-.02.71-.02.71-.02.71-.02.71-.02.71-.02.71-.02.71-.02.71-.02.71-.02.71-.02h.71s.71-.03.71-.03h.71s.71-.03.71-.03h.71s.71-.03.71-.03h0M34.57,96.49l.71.89.71.88.71.88.71.87.71.87.71.86.71.85.71.83.71.82.71.81.71.79.71.78.71.76.71.75.71.73.71.71.71.69.71.67.71.66.71.64.71.62.71.6.71.58.71.56.71.54.71.52.71.5.71.48.71.45.71.43.71.41.71.39.71.37.71.35.71.33.71.31.71.29.71.27.71.25.71.23.71.21.71.19.71.17.71.15.71.13.71.12.71.1.71.08.71.06.71.04.71.02h.71s.71-.01.71-.01l.71-.03.71-.05.71-.07.71-.08.71-.1.71-.12.71-.13.71-.15.71-.16.71-.17.71-.18.71-.2.71-.2.71-.21.71-.23.71-.23.71-.24.71-.25.71-.26.71-.26.71-.27.71-.28.71-.28.71-.29.71-.29.71-.3.71-.3.71-.3.71-.31.71-.31.71-.31.71-.31.71-.32.71-.32.71-.32.71-.32.71-.32.71-.32.71-.33.71-.33.71-.33.71-.33.71-.33.71-.33.71-.33.71-.33.71-.33.71-.33.71-.33.71-.33.71-.33.71-.33.71-.33.71-.33.71-.33.71-.33.71-.33.71-.33.71-.33.71-.33.71-.33.71-.33.71-.32.71-.32.71-.32.71-.32.71-.32.71-.32.71-.32.71-.32.71-.32.71-.32.71-.32.71-.32.71-.32.71-.32.71-.32.71-.32.71-.31.71-.31.71-.31.71-.31.71-.31.71-.31.71-.31.71-.31.71-.31.71-.31.71-.31.71-.31.71-.31.71-.31.71-.31.71-.31.71-.31.71-.3.71-.3.71-.3.71-.3.71-.3.71-.3.71-.3.71-.3.71-.3.71-.3.71-.3.71-.3.71-.3.71-.3.71-.3.71-.29.71-.29.71-.29.71-.29.71-.29.71-.29.71-.29.71-.29.71-.29.71-.29.71-.29.71-.29.71-.29.71-.29.71-.29.71-.29.71-.29.71-.28.71-.28.71-.28.71-.28.71-.28.71-.28.71-.28.71-.28.71-.28.71-.28.71-.28.71-.28.71-.28.71-.28.71-.28.71-.27.71-.27.71-.27.71-.27.71-.27.71-.27.71-.27.71-.27.71-.27.71-.27.71-.27.71-.27.71-.27.71-.27.71-.27.71-.27.71-.26.71-.27.71-.26.71-.26.71-.26.71-.26.71-.26.71-.26.71-.26.71-.26.71-.26.71-.26.71-.26.71-.26.71-.26.71-.26.71-.26.71-.26.71-.26.71-.25h0"/>
  </g>
  <g id="Experiments" class="st13">
    <polyline class="st4" points="147.76 119.3 150.59 119.3 153.42 118.99 156.25 118.69 159.08 118.69 161.91 118.38 164.74 118.07 167.57 117.76 170.4 117.14 173.23 116.53 176.06 115.91 178.89 114.98 181.72 113.75 184.55 112.82 187.38 111.28 190.21 110.04 193.04 108.81 195.87 107.57 197.99 106.88"/>
    <polyline class="st10" points="48.43 137.34 51.26 139.43 54.09 141.23 56.92 142.73 59.75 143.93 62.58 145.13 65.41 146.62 68.24 147.82 71.07 149.02 73.9 150.22 76.73 151.12 79.56 151.71 82.39 151.12 85.22 149.62 88.05 148.12 90.88 146.62 93.71 145.42 96.54 143.93 99.37 143.03 102.2 142.43 105.03 141.53 107.86 140.63"/>
    <path class="st9" d="M34.55,63.26l.02.02,2.83,4.58,2.83,3.7,2.83,3.7,2.83,3.7,2.83,3.39,2.83,4.24,2.83,5.34,2.83,4.16,2.83,1.81,2.83.07,2.83-1.45,2.83-1.36,2.83-1.21,2.83-.92,2.83-.56,2.83-.51,2.83-.78,2.83-.81,2.83-1.08,2.83-.77,2.83-1.29,2.83-1.18,2.83.7,2.83.28,2.83.07,2.83-1.24,2.83-2.1,2.83-2.57,2.83-2.14,2.83-2.49,2.83-1.85,2.83-.2,2.83-2.07,2.83-1.48,2.83-.37,2.83-1.48,2.83-.37,2.83-1.4,2.83-.45,2.83-.98,2.83-.46,2.83-.54,2.83-1.08,2.83-1.08,2.83-1.22,2.83-1.85,2.83-1.83,2.83-1.85,2.83-1.65,2.83-1.48,2.83-.57,2.83-1.65h2.83s2.83-1.01,2.83-1.01l2.83-.89,2.83-.15,2.83-.58,2.12-.75M34.55,63.25l.02.03,2.83,2.83,2.83,3.71,2.83,3.7,2.83,3.34,2.83,2.9,2.83,3.91,2.83,4.66,2.83,4.36,2.83-.7,2.83-1.18,2.83-.78,2.83-1.23,2.83-.64,2.83-1.67,2.83-.18,2.83-.6,2.83-1.08,2.83-.67,2.83-.77,2.83-1.08,2.83-.19,2.83-.3,2.83-.33,2.83-1.02,2.83-1.18,2.83-2.1,2.83-1.97,2.83-1.88,2.83-1.94,2.83-1.22,2.83-1.85,2.83-.91,2.83-1.26,2.83-1.11,2.83-.74,2.83-1.11,2.83-.74,2.83-.45,2.83-1.4,2.83-.13,2.83-1.39,2.83-.94,2.83-1.51,2.83-1.51,2.83-2.11,2.83-1.85,2.83-.39,2.83-1.85,2.83-.94,2.83-1.48,2.83-.54,2.83-.95,2.83-.74,2.83-.48,2.83-.96,2.83-.59,2.83-.9,2.12-.37"/>
    <path class="st9" d="M147.76,117.14l2.83-.88,2.83-.67,2.83-.21h2.83l2.83.03,2.83-.86,2.83-.07,2.83-.93,2.83-.86,2.83-.06,2.83-1.76,2.83-1.66,2.83-1.09,2.83-.96,2.83-1.66,2.83-.35,2.83-1.7,2.12-.07M147.76,121.46l2.83.88,2.83.06,2.83-.4h2.83l2.83-.65,2.83.24,2.83-.55,2.83-.3,2.83-.37,2.83-1.18,2.83-.09,2.83-.81,2.83-.77,2.83-2.13,2.83-.81,2.83-2.12,2.83-.77,2.12-1.32M48.72,135.93l2.83,2.18,2.83,1.85,2.83,1.05,2.83.88,2.83,1.7,2.83,1.93,2.83.29,2.83,1.57,2.83,1.84,2.83.08,2.83-.6,2.83-1.53,2.83-1.89,2.83-1.85,2.83-1.24,2.83-.8,2.83-1.62,2.83-.38,2.83-.87,2.83-1,2.83-.86M48.72,138.41l2.83,2.14,2.83,1.85,2.83,2.03,2.83,1.59,2.83.77,2.83,1.16,2.83,2.17,2.83.9,2.83.63,2.83,1.77,2.83,1.83,2.83.3,2.83-1.2,2.83-1.23,2.83-1.84,2.83-1.67,2.83-1.47,2.83-1.47,2.83-.37,2.83-.86,2.83-1"/>
    <polyline class="st4" points="34.55 63.26 34.57 63.28 37.4 66.99 40.23 70.69 43.06 74.4 45.89 77.92 48.72 81.06 51.55 85.14 54.38 90.14 57.21 94.4 60.04 94.95 62.87 94.4 65.69 93.29 68.53 91.99 71.35 91.07 74.18 89.77 77.01 89.4 79.85 88.84 82.67 87.92 85.5 87.18 88.33 86.25 91.16 85.32 93.99 84.58 96.82 83.84 99.65 84.03 102.48 83.66 105.31 83.1 108.14 81.43 110.97 79.4 113.8 77.17 116.63 75.14 119.46 73.28 122.29 71.43 125.12 70.88 127.95 69.21 130.78 67.91 133.61 67.36 136.44 66.06 139.27 65.51 142.1 64.58 144.93 63.65 147.76 63.1 150.59 62.17 153.42 61.43 156.25 60.13 159.08 58.84 161.91 57.17 164.74 55.32 167.57 54.21 170.4 52.36 173.23 51.06 176.06 49.58 178.89 49.02 181.72 47.73 184.55 47.36 187.38 46.61 190.21 45.69 193.04 45.32 195.87 44.58 197.99 44.02"/>
  </g>
  <g id="DNS" class="st13">
    <path class="st11" d="M34.55,62.99l.63.79,2.61,3.27,2.61,3.27,2.61,3.26,2.61,3.27,2.61,3.53,2.61,1.92,2.61,4.97,2.61,5.65,2.61,2,2.61-.37,2.61-1.02,2.61-1.06,2.61-1.05,2.61-.89,2.61-1.06,2.61-.64,2.61-.49,2.61-1,2.61-1.16,2.61-.68,2.61-1.04,2.61-1.2,2.61-.67,2.61-.09,2.61-.05,2.61-.75,2.61-1.66,2.61-2.18,2.61-2.14,2.61-1.98,2.61-1.93,2.61-1.68,2.61-1.31,2.61-1.19,2.61-1.15,2.61-1.04,2.61-.94,2.61-.94,2.61-.95,2.61-.86,2.61-.69,2.61-.58,2.61-.62,2.61-.72,2.61-.61,2.61-1.2,2.61-1.75,2.61-1.99,2.61-1.88,2.61-1.62,2.61-1.38,2.61-1.17,2.61-.97,2.61-.81,2.61-.7,2.61-.76,2.61-.77,2.61-.61,2.61-.64,2.61-.69,2.61-.6,2.61-.5,1.22-.27M34.55,128.08l.63.71,2.61,1.83,2.61,1.76,2.61,1.73,2.61,1.69,2.61,1.66,2.61,1.62,2.61,1.55,2.61,1.49,2.61,1.41,2.61,1.32,2.61,1.06,2.61,1.39,2.61.71,2.61.47,2.61,1.45,2.61,1.39,2.61.38,2.61-.68,2.61-1.39,2.61-1.66,2.61-1.52,2.61-1.36,2.61-1.28,2.61-1.06,2.61-.77,2.61-.89,2.61-.9,2.61-.73,2.61-.78,2.61-.9,2.61-.8,2.61-.49,2.61-.28,2.61-.33,2.61-.57,2.61-.84,2.61-1,2.61-2.38,2.61-2.13,2.61-2.05,2.61-1.72,2.61-1.39,2.61-1.2,2.61-1.04,2.61-.89,2.61-.82,2.61-.85,2.61-.82,2.61-.81,2.61-.54,2.61-.71,2.61-.65,2.61-.54,2.61-.67,2.61-1.03,2.61-1.44,2.61-1.73,2.61-1.79,2.61-1.65,2.61-1.46,2.61-1.18,2.61-.94,1.22-.32M34.55,129.48l.63.08,2.61,1.55,2.61,1.66,2.61,1.67,2.61,1.65,2.61,1.63,2.61,1.59,2.61,1.54,2.61,1.48,2.61,1.4,2.61,1.31,2.61,1.05,2.61,1.38,2.61.71,2.61.47,2.61,1.45,2.61,1.38,2.61.38,2.61-.68,2.61-1.38,2.61-1.65,2.61-1.51,2.61-1.35,2.61-1.28,2.61-1.06,2.61-.76,2.61-.87,2.61-.88,2.61-.72,2.61-.77,2.61-.89,2.61-.81,2.61-.53,2.61-.33,2.61-.37,2.61-.59,2.61-.85,2.61-1.06,2.61.22,2.61-.13,2.61-.15,2.61-.18,2.61-.15,2.61-.12,2.61-.2,2.61-.15,2.61-.04,2.61-.11,2.61-.25,2.61-.14,2.61.04,2.61.03,2.61-.18,2.61-.34,2.61-.22,2.61.06,2.61.24,2.61.18,2.61-.1,2.61-.37,2.61-.47,2.61-.41,2.61-.19,1.22.08"/>
    <polyline class="st11" points="34.55 95.66 35.18 96.45 37.78 100 40.39 103.11 42.99 105.76 45.6 108.52 48.21 111.06 50.81 113.35 53.42 115.56 56.03 117.11 58.63 118.71 61.24 119.75 63.85 120.65 66.45 121.32 69.06 121.6 71.67 121.62 74.27 121.41 76.88 120.98 79.49 120.4 82.09 119.59 84.7 118.75 87.31 117.93 89.91 116.94 92.52 115.9 95.12 114.71 97.73 113.6 100.34 112.56 102.94 111.39 105.55 110.2 108.16 108.88 110.76 107.66 113.37 106.57 115.98 105.36 118.58 104.16 121.19 102.83 123.8 101.63 126.4 100.55 129.01 99.25 131.61 98.19 134.22 97.04 136.83 95.89 139.43 94.75 142.04 93.5 144.65 92.5 147.25 91.27 149.86 90.28 152.47 89.19 155.07 87.99 157.68 87.02 160.29 85.84 162.89 84.89 165.5 83.83 168.11 82.68 170.71 81.75 173.32 80.62 175.93 79.71 178.53 78.69 181.14 77.59 183.74 76.69 186.35 75.61 188.96 74.73 191.56 73.76 194.17 72.7 196.78 71.84 197.99 71.36"/>
  </g>
</svg>